<?xml version="1.0" encoding="UTF-8"?>
<!DOCTYPE svg PUBLIC "-//W3C//DTD SVG 1.1//EN" "http://www.w3.org/Graphics/SVG/1.1/DTD/svg11.dtd">
<!-- Creator: CorelDRAW -->
<svg xmlns="http://www.w3.org/2000/svg" xml:space="preserve" width="210mm" height="210mm" version="1.1" style="shape-rendering:geometricPrecision; text-rendering:geometricPrecision; image-rendering:optimizeQuality; fill-rule:evenodd; clip-rule:evenodd"
viewBox="0 0 21000 21000.04"
 xmlns:xlink="http://www.w3.org/1999/xlink"
 xmlns:xodm="http://www.corel.com/coreldraw/odm/2003">
 <defs>
  <style type="text/css">
   <![CDATA[
    .fil1 {fill:#C2F0E6;fill-rule:nonzero}
    .fil0 {fill:white;fill-rule:nonzero}
   ]]>
  </style>
 </defs>
 <g id="Camada_x0020_1">
  <metadata id="CorelCorpID_0Corel-Layer"/>
  <polygon class="fil0" points="-7.15,21000.57 20992.89,21000.57 20992.89,0.53 -7.15,0.53 "/>
  <polygon class="fil1" points="661.48,21000.57 728.67,21000.57 728.67,0.53 661.48,0.53 "/>
  <polygon class="fil1" points="1387.26,21000.57 1454.46,21000.57 1454.46,0.53 1387.26,0.53 "/>
  <polygon class="fil1" points="2113.02,21000.57 2180.24,21000.57 2180.24,0.53 2113.02,0.53 "/>
  <polygon class="fil1" points="2838.76,21000.57 2905.97,21000.57 2905.97,0.53 2838.76,0.53 "/>
  <polygon class="fil1" points="3564.53,21000.57 3631.73,21000.57 3631.73,0.53 3564.53,0.53 "/>
  <polygon class="fil1" points="4290.31,21000.57 4357.5,21000.57 4357.5,0.53 4290.31,0.53 "/>
  <polygon class="fil1" points="5016.07,21000.57 5083.26,21000.57 5083.26,0.53 5016.07,0.53 "/>
  <polygon class="fil1" points="5741.83,21000.57 5809.02,21000.57 5809.02,0.53 5741.83,0.53 "/>
  <polygon class="fil1" points="6467.59,21000.57 6534.79,21000.57 6534.79,0.53 6467.59,0.53 "/>
  <polygon class="fil1" points="7193.35,21000.57 7260.55,21000.57 7260.55,0.53 7193.35,0.53 "/>
  <polygon class="fil1" points="7919.11,21000.57 7986.36,21000.57 7986.36,0.53 7919.11,0.53 "/>
  <polygon class="fil1" points="8644.88,21000.57 8712.07,21000.57 8712.07,0.53 8644.88,0.53 "/>
  <polygon class="fil1" points="9370.64,21000.57 9437.83,21000.57 9437.83,0.53 9370.64,0.53 "/>
  <polygon class="fil1" points="10096.4,21000.57 10163.59,21000.57 10163.59,0.53 10096.4,0.53 "/>
  <polygon class="fil1" points="10822.16,21000.57 10889.35,21000.57 10889.35,0.53 10822.16,0.53 "/>
  <polygon class="fil1" points="11547.92,21000.57 11615.12,21000.57 11615.12,0.53 11547.92,0.53 "/>
  <polygon class="fil1" points="12273.68,21000.57 12340.88,21000.57 12340.88,0.53 12273.68,0.53 "/>
  <polygon class="fil1" points="12999.44,21000.57 13066.64,21000.57 13066.64,0.53 12999.44,0.53 "/>
  <polygon class="fil1" points="13725.2,21000.57 13792.4,21000.57 13792.4,0.53 13725.2,0.53 "/>
  <polygon class="fil1" points="14450.97,21000.57 14518.16,21000.57 14518.16,0.53 14450.97,0.53 "/>
  <polygon class="fil1" points="15176.73,21000.57 15243.92,21000.57 15243.92,0.53 15176.73,0.53 "/>
  <polygon class="fil1" points="15902.49,21000.57 15969.68,21000.57 15969.68,0.53 15902.49,0.53 "/>
  <polygon class="fil1" points="16628.25,21000.57 16695.44,21000.57 16695.44,0.53 16628.25,0.53 "/>
  <polygon class="fil1" points="17354.01,21000.57 17421.21,21000.57 17421.21,0.53 17354.01,0.53 "/>
  <polygon class="fil1" points="18079.77,21000.57 18146.96,21000.57 18146.96,0.53 18079.77,0.53 "/>
  <polygon class="fil1" points="18805.53,21000.57 18872.73,21000.57 18872.73,0.53 18805.53,0.53 "/>
  <polygon class="fil1" points="19531.3,21000.57 19598.49,21000.57 19598.49,0.53 19531.3,0.53 "/>
  <polygon class="fil1" points="20257.06,21000.57 20324.25,21000.57 20324.25,0.53 20257.06,0.53 "/>
  <polygon class="fil1" points="-7.15,20331.93 20992.89,20331.93 20992.89,20264.72 -7.15,20264.72 "/>
  <polygon class="fil1" points="-7.15,19606.16 20992.89,19606.16 20992.89,19538.96 -7.15,19538.96 "/>
  <polygon class="fil1" points="-7.15,18880.4 20992.89,18880.4 20992.89,18813.19 -7.15,18813.19 "/>
  <polygon class="fil1" points="-7.15,18154.64 20992.89,18154.64 20992.89,18087.43 -7.15,18087.43 "/>
  <polygon class="fil1" points="-7.15,17428.89 20992.89,17428.89 20992.89,17361.67 -7.15,17361.67 "/>
  <polygon class="fil1" points="-7.15,16703.11 20992.89,16703.11 20992.89,16635.92 -7.15,16635.92 "/>
  <polygon class="fil1" points="-7.15,15977.4 20992.89,15977.4 20992.89,15910.19 -7.15,15910.19 "/>
  <polygon class="fil1" points="-7.15,15251.59 20992.89,15251.59 20992.89,15184.4 -7.15,15184.4 "/>
  <polygon class="fil1" points="-7.15,14525.83 20992.89,14525.83 20992.89,14458.63 -7.15,14458.63 "/>
  <polygon class="fil1" points="-7.15,13800.07 20992.89,13800.07 20992.89,13732.87 -7.15,13732.87 "/>
  <polygon class="fil1" points="-7.15,13074.31 20992.89,13074.31 20992.89,13007.11 -7.15,13007.11 "/>
  <polygon class="fil1" points="-7.15,12348.54 20992.89,12348.54 20992.89,12281.35 -7.15,12281.35 "/>
  <polygon class="fil1" points="-7.15,11622.78 20992.89,11622.78 20992.89,11555.59 -7.15,11555.59 "/>
  <polygon class="fil1" points="-7.15,10897.02 20992.89,10897.02 20992.89,10829.83 -7.15,10829.83 "/>
  <polygon class="fil1" points="-7.15,10171.26 20992.89,10171.26 20992.89,10104.07 -7.15,10104.07 "/>
  <polygon class="fil1" points="-7.15,9445.5 20992.89,9445.5 20992.89,9378.3 -7.15,9378.3 "/>
  <polygon class="fil1" points="-7.15,8719.74 20992.89,8719.74 20992.89,8652.54 -7.15,8652.54 "/>
  <polygon class="fil1" points="-7.15,7994.02 20992.89,7994.02 20992.89,7926.77 -7.15,7926.77 "/>
  <polygon class="fil1" points="-7.15,7268.22 20992.89,7268.22 20992.89,7201.02 -7.15,7201.02 "/>
  <polygon class="fil1" points="-7.15,6542.45 20992.89,6542.45 20992.89,6475.26 -7.15,6475.26 "/>
  <polygon class="fil1" points="-7.15,5816.69 20992.89,5816.69 20992.89,5749.5 -7.15,5749.5 "/>
  <polygon class="fil1" points="-7.15,5090.93 20992.89,5090.93 20992.89,5023.74 -7.15,5023.74 "/>
  <polygon class="fil1" points="-7.15,4365.17 20992.89,4365.17 20992.89,4297.98 -7.15,4297.98 "/>
  <polygon class="fil1" points="-7.15,3639.41 20992.89,3639.41 20992.89,3572.21 -7.15,3572.21 "/>
  <polygon class="fil1" points="-7.15,2913.7 20992.89,2913.7 20992.89,2846.49 -7.15,2846.49 "/>
  <polygon class="fil1" points="-7.15,2187.89 20992.89,2187.89 20992.89,2120.67 -7.15,2120.67 "/>
  <polygon class="fil1" points="-7.15,1462.12 20992.89,1462.12 20992.89,1394.93 -7.15,1394.93 "/>
  <polygon class="fil1" points="-7.15,736.36 20992.89,736.36 20992.89,669.17 -7.15,669.17 "/>
  <polygon class="fil1" points="5016.07,17611.91 5016.07,17428.89 5083.26,17428.89 5083.26,17514.86 "/>
  <polygon class="fil1" points="10277.49,20211.51 10277.46,20211 "/>
  <path class="fil1" d="M10281.23 20235.12l0.1 0c-1.4,-6.73 -2.58,-13.36 -3.37,-19.92 0.79,6.64 1.97,13.27 3.27,19.92z"/>
  <polygon class="fil1" points="10305.69,20303.61 10305.17,20302.74 "/>
  <polygon class="fil1" points="10303.29,20299.11 10301.43,20295.26 "/>
  <path class="fil1" d="M10288.08 20261.52c3.62,11.43 7.99,22.43 13.02,32.98 -5.08,-10.71 -9.4,-21.8 -12.89,-32.98l-0.13 0z"/>
 </g>
</svg>
