<svg xmlns="http://www.w3.org/2000/svg" xmlns:xlink="http://www.w3.org/1999/xlink" width="1920" zoomAndPan="magnify" viewBox="0 0 1440 809.999993" height="1080" preserveAspectRatio="xMidYMid meet" version="1.0"><defs><clipPath id="f4e6d64321"><path d="M 633.035156 316.535156 L 711.320312 316.535156 L 711.320312 395.28125 L 633.035156 395.28125 Z M 633.035156 316.535156 " clip-rule="nonzero"/></clipPath><clipPath id="9a41c07f8c"><path d="M 634.875 316.535156 L 709.480469 316.535156 C 709.96875 316.535156 710.4375 316.734375 710.78125 317.078125 C 711.128906 317.425781 711.320312 317.894531 711.320312 318.382812 L 711.320312 393.433594 C 711.320312 393.921875 711.128906 394.390625 710.78125 394.738281 C 710.4375 395.082031 709.96875 395.28125 709.480469 395.28125 L 634.875 395.28125 C 634.386719 395.28125 633.917969 395.082031 633.574219 394.738281 C 633.230469 394.390625 633.035156 393.921875 633.035156 393.433594 L 633.035156 318.382812 C 633.035156 317.894531 633.230469 317.425781 633.574219 317.078125 C 633.917969 316.734375 634.386719 316.535156 634.875 316.535156 " clip-rule="nonzero"/></clipPath><clipPath id="9627ec5eff"><path d="M 732.285156 316.535156 L 810.886719 316.535156 L 810.886719 395.136719 L 732.285156 395.136719 Z M 732.285156 316.535156 " clip-rule="nonzero"/></clipPath><clipPath id="c40bf91156"><path d="M 734.128906 316.535156 L 808.875 316.535156 C 809.359375 316.535156 809.832031 316.730469 810.175781 317.074219 C 810.519531 317.417969 810.714844 317.890625 810.714844 318.375 L 810.714844 393.222656 C 810.714844 393.714844 810.519531 394.179688 810.175781 394.527344 C 809.832031 394.871094 809.359375 395.066406 808.875 395.066406 L 734.128906 395.066406 C 733.640625 395.066406 733.171875 394.871094 732.828125 394.527344 C 732.480469 394.179688 732.285156 393.714844 732.285156 393.222656 L 732.285156 318.375 C 732.285156 317.890625 732.480469 317.417969 732.828125 317.074219 C 733.171875 316.730469 733.640625 316.535156 734.128906 316.535156 " clip-rule="nonzero"/></clipPath><clipPath id="355c7907b4"><path d="M 737.839844 335.070312 L 805.070312 335.070312 L 805.070312 377.4375 L 737.839844 377.4375 Z M 737.839844 335.070312 " clip-rule="nonzero"/></clipPath><clipPath id="f39a8ec25d"><path d="M 633.035156 415.683594 L 711.636719 415.683594 L 711.636719 494.285156 L 633.035156 494.285156 Z M 633.035156 415.683594 " clip-rule="nonzero"/></clipPath><clipPath id="253956a6be"><path d="M 634.875 415.683594 L 709.621094 415.683594 C 710.109375 415.683594 710.578125 415.878906 710.921875 416.222656 C 711.269531 416.570312 711.464844 417.035156 711.464844 417.527344 L 711.464844 492.375 C 711.464844 492.859375 711.269531 493.332031 710.921875 493.675781 C 710.578125 494.019531 710.109375 494.214844 709.621094 494.214844 L 634.875 494.214844 C 634.390625 494.214844 633.917969 494.019531 633.574219 493.675781 C 633.230469 493.332031 633.035156 492.859375 633.035156 492.375 L 633.035156 417.527344 C 633.035156 417.035156 633.230469 416.570312 633.574219 416.222656 C 633.917969 415.878906 634.390625 415.683594 634.875 415.683594 " clip-rule="nonzero"/></clipPath><clipPath id="b44d030df8"><path d="M 732.285156 415.6875 L 810.570312 415.6875 L 810.570312 494.429688 L 732.285156 494.429688 Z M 732.285156 415.6875 " clip-rule="nonzero"/></clipPath><clipPath id="6bc6c19c22"><path d="M 734.125 415.6875 L 808.734375 415.6875 C 809.222656 415.6875 809.6875 415.878906 810.035156 416.226562 C 810.378906 416.574219 810.570312 417.042969 810.570312 417.53125 L 810.570312 492.578125 C 810.570312 493.070312 810.378906 493.539062 810.035156 493.886719 C 809.6875 494.230469 809.222656 494.425781 808.734375 494.425781 L 734.125 494.425781 C 733.640625 494.425781 733.171875 494.230469 732.828125 493.886719 C 732.480469 493.539062 732.285156 493.070312 732.285156 492.578125 L 732.285156 417.53125 C 732.285156 417.042969 732.480469 416.574219 732.828125 416.226562 C 733.171875 415.878906 733.640625 415.6875 734.125 415.6875 " clip-rule="nonzero"/></clipPath><clipPath id="23e8cfb041"><path d="M 737.015625 421.722656 L 805.628906 421.722656 L 805.628906 488.496094 L 737.015625 488.496094 Z M 737.015625 421.722656 " clip-rule="nonzero"/></clipPath></defs><g clip-path="url(#f4e6d64321)"><g clip-path="url(#9a41c07f8c)"><path stroke-linecap="butt" transform="matrix(0.459702, 0, 0, 0.461765, 633.035302, 316.537797)" fill="none" stroke-linejoin="miter" d="M 4.001937 -0.00571855 L 166.301448 -0.00571855 C 167.355121 -0.00571855 168.374803 0.42571 169.122571 1.170137 C 169.878835 1.923023 170.295206 2.93815 170.295206 3.995574 L 170.295206 166.525887 C 170.295206 167.583311 169.878835 168.598438 169.122571 169.351324 C 168.374803 170.09575 167.355121 170.527179 166.301448 170.527179 L 4.001937 170.527179 C 2.939768 170.527179 1.920085 170.09575 1.172317 169.351324 C 0.416053 168.598438 -0.000317869 167.583311 -0.000317869 166.525887 L -0.000317869 3.995574 C -0.000317869 2.93815 0.416053 1.923023 1.172317 1.170137 C 1.920085 0.42571 2.939768 -0.00571855 4.001937 -0.00571855 " stroke="#2c306f" stroke-width="26" stroke-opacity="1" stroke-miterlimit="4"/></g></g><g clip-path="url(#9627ec5eff)"><g clip-path="url(#c40bf91156)"><path fill="#2c306f" d="M 732.285156 316.535156 L 810.886719 316.535156 L 810.886719 395.136719 L 732.285156 395.136719 Z M 732.285156 316.535156 " fill-opacity="1" fill-rule="nonzero"/></g></g><g clip-path="url(#355c7907b4)"><path fill="#c2f0e6" d="M 802.972656 354.046875 L 800.871094 354.046875 L 800.871094 345.644531 C 800.871094 345.367188 800.84375 345.09375 800.789062 344.828125 C 800.734375 344.554688 800.65625 344.292969 800.550781 344.039062 C 800.445312 343.78125 800.316406 343.539062 800.164062 343.3125 C 800.007812 343.082031 799.832031 342.871094 799.640625 342.675781 C 799.445312 342.476562 799.230469 342.304688 799.003906 342.152344 C 798.773438 342 798.53125 341.871094 798.277344 341.761719 C 798.019531 341.65625 797.757812 341.578125 797.488281 341.523438 C 797.21875 341.472656 796.945312 341.441406 796.667969 341.441406 L 792.464844 341.441406 L 792.464844 339.339844 C 792.464844 339.066406 792.4375 338.792969 792.382812 338.523438 C 792.332031 338.253906 792.253906 337.988281 792.148438 337.734375 C 792.042969 337.480469 791.910156 337.238281 791.757812 337.007812 C 791.605469 336.777344 791.429688 336.566406 791.234375 336.371094 C 791.042969 336.175781 790.828125 336.003906 790.601562 335.847656 C 790.371094 335.695312 790.128906 335.566406 789.875 335.460938 C 789.617188 335.355469 789.355469 335.277344 789.085938 335.222656 C 788.8125 335.167969 788.539062 335.140625 788.265625 335.140625 L 781.960938 335.140625 C 781.683594 335.140625 781.410156 335.167969 781.140625 335.222656 C 780.871094 335.277344 780.609375 335.355469 780.355469 335.460938 C 780.097656 335.566406 779.855469 335.695312 779.625 335.847656 C 779.398438 336.003906 779.1875 336.175781 778.988281 336.371094 C 778.792969 336.566406 778.621094 336.777344 778.464844 337.007812 C 778.316406 337.238281 778.183594 337.480469 778.078125 337.734375 C 777.972656 337.988281 777.894531 338.253906 777.839844 338.523438 C 777.785156 338.792969 777.757812 339.066406 777.757812 339.339844 L 777.757812 354.046875 L 765.152344 354.046875 L 765.152344 339.339844 C 765.152344 339.066406 765.125 338.792969 765.070312 338.523438 C 765.019531 338.253906 764.9375 337.988281 764.832031 337.734375 C 764.726562 337.480469 764.597656 337.238281 764.445312 337.007812 C 764.292969 336.777344 764.117188 336.566406 763.921875 336.371094 C 763.726562 336.175781 763.515625 336.003906 763.285156 335.847656 C 763.054688 335.695312 762.8125 335.566406 762.558594 335.460938 C 762.304688 335.355469 762.042969 335.277344 761.769531 335.222656 C 761.5 335.167969 761.226562 335.140625 760.949219 335.140625 L 754.648438 335.140625 C 754.371094 335.140625 754.097656 335.167969 753.828125 335.222656 C 753.558594 335.277344 753.292969 335.355469 753.039062 335.460938 C 752.785156 335.566406 752.542969 335.695312 752.3125 335.847656 C 752.082031 336.003906 751.871094 336.175781 751.675781 336.371094 C 751.480469 336.566406 751.304688 336.777344 751.152344 337.007812 C 751 337.238281 750.871094 337.480469 750.765625 337.734375 C 750.660156 337.988281 750.578125 338.253906 750.527344 338.523438 C 750.472656 338.792969 750.445312 339.066406 750.445312 339.339844 L 750.445312 341.441406 L 746.242188 341.441406 C 745.96875 341.441406 745.695312 341.472656 745.421875 341.523438 C 745.152344 341.578125 744.890625 341.65625 744.636719 341.761719 C 744.378906 341.871094 744.136719 342 743.910156 342.152344 C 743.679688 342.304688 743.46875 342.476562 743.269531 342.675781 C 743.078125 342.871094 742.902344 343.082031 742.75 343.3125 C 742.597656 343.539062 742.46875 343.78125 742.363281 344.039062 C 742.257812 344.292969 742.175781 344.554688 742.121094 344.828125 C 742.066406 345.09375 742.042969 345.367188 742.042969 345.644531 L 742.042969 354.046875 L 739.941406 354.046875 C 739.660156 354.046875 739.394531 354.105469 739.136719 354.210938 C 738.878906 354.316406 738.652344 354.46875 738.457031 354.664062 C 738.257812 354.863281 738.105469 355.089844 738 355.347656 C 737.890625 355.605469 737.839844 355.871094 737.839844 356.148438 C 737.839844 356.429688 737.890625 356.695312 738 356.957031 C 738.105469 357.210938 738.257812 357.441406 738.457031 357.636719 C 738.652344 357.832031 738.878906 357.984375 739.136719 358.09375 C 739.394531 358.199219 739.660156 358.25 739.941406 358.25 L 742.042969 358.25 L 742.042969 366.65625 C 742.042969 366.929688 742.066406 367.203125 742.121094 367.476562 C 742.175781 367.746094 742.257812 368.007812 742.363281 368.265625 C 742.46875 368.519531 742.597656 368.761719 742.75 368.992188 C 742.902344 369.21875 743.078125 369.433594 743.269531 369.625 C 743.46875 369.824219 743.679688 369.996094 743.910156 370.148438 C 744.136719 370.300781 744.378906 370.433594 744.636719 370.539062 C 744.890625 370.644531 745.152344 370.722656 745.421875 370.777344 C 745.695312 370.832031 745.96875 370.855469 746.242188 370.855469 L 750.445312 370.855469 L 750.445312 372.957031 C 750.445312 373.234375 750.472656 373.507812 750.527344 373.777344 C 750.578125 374.050781 750.660156 374.3125 750.765625 374.566406 C 750.871094 374.820312 751 375.0625 751.152344 375.292969 C 751.304688 375.523438 751.480469 375.734375 751.675781 375.929688 C 751.871094 376.125 752.082031 376.296875 752.3125 376.453125 C 752.542969 376.605469 752.785156 376.734375 753.039062 376.839844 C 753.292969 376.945312 753.558594 377.027344 753.828125 377.082031 C 754.097656 377.132812 754.371094 377.160156 754.648438 377.160156 L 760.949219 377.160156 C 761.226562 377.160156 761.5 377.132812 761.769531 377.082031 C 762.042969 377.027344 762.304688 376.945312 762.558594 376.839844 C 762.8125 376.734375 763.054688 376.605469 763.285156 376.453125 C 763.515625 376.296875 763.726562 376.125 763.921875 375.929688 C 764.117188 375.734375 764.292969 375.523438 764.445312 375.292969 C 764.597656 375.0625 764.726562 374.820312 764.832031 374.566406 C 764.9375 374.3125 765.019531 374.050781 765.070312 373.777344 C 765.125 373.507812 765.152344 373.234375 765.152344 372.957031 L 765.152344 358.25 L 777.757812 358.25 L 777.757812 372.957031 C 777.757812 373.234375 777.785156 373.507812 777.839844 373.777344 C 777.894531 374.050781 777.972656 374.3125 778.078125 374.566406 C 778.183594 374.820312 778.316406 375.0625 778.464844 375.292969 C 778.621094 375.523438 778.792969 375.734375 778.988281 375.929688 C 779.1875 376.125 779.398438 376.296875 779.625 376.453125 C 779.855469 376.605469 780.097656 376.734375 780.355469 376.839844 C 780.609375 376.945312 780.871094 377.027344 781.140625 377.082031 C 781.410156 377.132812 781.683594 377.160156 781.960938 377.160156 L 788.265625 377.160156 C 788.539062 377.160156 788.8125 377.132812 789.085938 377.082031 C 789.355469 377.027344 789.617188 376.945312 789.875 376.839844 C 790.128906 376.734375 790.371094 376.605469 790.601562 376.453125 C 790.828125 376.296875 791.042969 376.125 791.234375 375.929688 C 791.429688 375.734375 791.605469 375.523438 791.757812 375.292969 C 791.910156 375.0625 792.042969 374.820312 792.148438 374.566406 C 792.253906 374.3125 792.332031 374.050781 792.382812 373.777344 C 792.4375 373.507812 792.464844 373.234375 792.464844 372.957031 L 792.464844 370.855469 L 796.667969 370.855469 C 796.945312 370.855469 797.21875 370.832031 797.488281 370.777344 C 797.757812 370.722656 798.019531 370.644531 798.277344 370.539062 C 798.53125 370.433594 798.773438 370.300781 799.003906 370.148438 C 799.230469 369.996094 799.445312 369.824219 799.640625 369.625 C 799.832031 369.433594 800.007812 369.21875 800.164062 368.992188 C 800.316406 368.761719 800.445312 368.519531 800.550781 368.265625 C 800.65625 368.007812 800.734375 367.746094 800.789062 367.476562 C 800.84375 367.203125 800.871094 366.929688 800.871094 366.65625 L 800.871094 358.25 L 802.972656 358.25 C 803.25 358.25 803.519531 358.199219 803.773438 358.09375 C 804.035156 357.984375 804.257812 357.832031 804.457031 357.636719 C 804.65625 357.441406 804.804688 357.210938 804.910156 356.957031 C 805.019531 356.695312 805.070312 356.429688 805.070312 356.148438 C 805.070312 355.871094 805.019531 355.605469 804.910156 355.347656 C 804.804688 355.089844 804.65625 354.863281 804.457031 354.664062 C 804.257812 354.46875 804.035156 354.316406 803.773438 354.210938 C 803.519531 354.105469 803.25 354.046875 802.972656 354.046875 Z M 746.242188 366.65625 L 746.242188 345.644531 L 750.445312 345.644531 L 750.445312 366.65625 Z M 760.949219 372.957031 L 754.648438 372.957031 L 754.648438 339.339844 L 760.949219 339.339844 Z M 788.265625 372.957031 L 781.960938 372.957031 L 781.960938 339.339844 L 788.265625 339.339844 L 788.265625 368.710938 C 788.265625 368.722656 788.265625 368.742188 788.265625 368.753906 C 788.265625 368.773438 788.265625 368.789062 788.265625 368.804688 Z M 796.667969 366.65625 L 792.464844 366.65625 L 792.464844 345.644531 L 796.667969 345.644531 Z M 796.667969 366.65625 " fill-opacity="1" fill-rule="nonzero"/></g><g clip-path="url(#f39a8ec25d)"><g clip-path="url(#253956a6be)"><path fill="#2c306f" d="M 633.035156 415.683594 L 711.636719 415.683594 L 711.636719 494.285156 L 633.035156 494.285156 Z M 633.035156 415.683594 " fill-opacity="1" fill-rule="nonzero"/></g></g><path fill="#c2f0e6" d="M 673.917969 461.628906 L 673.917969 444.675781 C 673.917969 444.398438 673.867188 444.132812 673.761719 443.878906 C 673.65625 443.621094 673.503906 443.398438 673.308594 443.199219 C 673.113281 443.003906 672.886719 442.855469 672.628906 442.746094 C 672.375 442.640625 672.109375 442.589844 671.832031 442.589844 C 671.554688 442.589844 671.289062 442.640625 671.03125 442.746094 C 670.777344 442.855469 670.554688 443.003906 670.355469 443.199219 C 670.164062 443.398438 670.011719 443.621094 669.90625 443.878906 C 669.796875 444.132812 669.746094 444.398438 669.746094 444.675781 L 669.746094 461.628906 C 669.421875 461.714844 669.101562 461.816406 668.789062 461.941406 C 668.480469 462.0625 668.175781 462.203125 667.878906 462.363281 C 667.582031 462.519531 667.296875 462.695312 667.023438 462.890625 C 666.75 463.082031 666.492188 463.289062 666.242188 463.515625 C 665.992188 463.742188 665.757812 463.976562 665.539062 464.234375 C 665.316406 464.484375 665.113281 464.75 664.925781 465.027344 C 664.738281 465.304688 664.5625 465.59375 664.410156 465.890625 C 664.257812 466.191406 664.121094 466.496094 664.007812 466.808594 C 663.890625 467.121094 663.792969 467.445312 663.714844 467.769531 C 663.636719 468.097656 663.578125 468.425781 663.539062 468.757812 C 663.5 469.09375 663.484375 469.425781 663.484375 469.761719 C 663.488281 470.097656 663.511719 470.429688 663.550781 470.761719 C 663.59375 471.097656 663.65625 471.425781 663.738281 471.75 C 663.820312 472.074219 663.921875 472.394531 664.042969 472.707031 C 664.160156 473.019531 664.300781 473.324219 664.457031 473.621094 C 664.613281 473.917969 664.789062 474.203125 664.980469 474.480469 C 665.171875 474.753906 665.378906 475.015625 665.601562 475.269531 C 665.824219 475.515625 666.0625 475.753906 666.316406 475.976562 C 666.566406 476.195312 666.832031 476.402344 667.105469 476.59375 C 667.382812 476.78125 667.671875 476.953125 667.96875 477.109375 C 668.265625 477.265625 668.570312 477.402344 668.882812 477.519531 C 669.199219 477.636719 669.515625 477.738281 669.84375 477.816406 C 670.167969 477.898438 670.496094 477.957031 670.832031 477.996094 C 671.164062 478.039062 671.5 478.058594 671.832031 478.058594 C 672.167969 478.058594 672.5 478.039062 672.835938 477.996094 C 673.167969 477.957031 673.496094 477.898438 673.824219 477.816406 C 674.148438 477.738281 674.46875 477.636719 674.78125 477.519531 C 675.097656 477.402344 675.402344 477.265625 675.699219 477.109375 C 675.996094 476.953125 676.28125 476.78125 676.558594 476.59375 C 676.835938 476.402344 677.097656 476.195312 677.351562 475.976562 C 677.601562 475.753906 677.839844 475.515625 678.0625 475.269531 C 678.285156 475.015625 678.492188 474.753906 678.683594 474.480469 C 678.875 474.203125 679.050781 473.917969 679.207031 473.621094 C 679.363281 473.324219 679.5 473.019531 679.625 472.707031 C 679.742188 472.394531 679.84375 472.074219 679.925781 471.75 C 680.007812 471.425781 680.070312 471.097656 680.113281 470.761719 C 680.152344 470.429688 680.175781 470.097656 680.179688 469.761719 C 680.179688 469.425781 680.164062 469.09375 680.125 468.757812 C 680.085938 468.425781 680.027344 468.097656 679.949219 467.769531 C 679.871094 467.445312 679.773438 467.121094 679.65625 466.808594 C 679.542969 466.496094 679.40625 466.191406 679.253906 465.890625 C 679.097656 465.59375 678.929688 465.304688 678.742188 465.027344 C 678.550781 464.75 678.347656 464.484375 678.128906 464.234375 C 677.90625 463.976562 677.675781 463.742188 677.425781 463.515625 C 677.175781 463.289062 676.914062 463.082031 676.640625 462.890625 C 676.363281 462.695312 676.082031 462.519531 675.785156 462.363281 C 675.492188 462.203125 675.1875 462.0625 674.875 461.941406 C 674.5625 461.816406 674.246094 461.714844 673.917969 461.628906 Z M 671.832031 473.890625 C 671.558594 473.890625 671.289062 473.863281 671.019531 473.808594 C 670.75 473.757812 670.488281 473.675781 670.238281 473.570312 C 669.980469 473.464844 669.742188 473.335938 669.515625 473.1875 C 669.285156 473.035156 669.074219 472.859375 668.882812 472.667969 C 668.6875 472.472656 668.515625 472.261719 668.363281 472.035156 C 668.210938 471.808594 668.082031 471.566406 667.976562 471.3125 C 667.871094 471.0625 667.792969 470.800781 667.738281 470.53125 C 667.6875 470.261719 667.660156 469.988281 667.660156 469.714844 C 667.660156 469.441406 667.6875 469.171875 667.738281 468.902344 C 667.792969 468.632812 667.871094 468.371094 667.976562 468.117188 C 668.082031 467.867188 668.210938 467.625 668.363281 467.398438 C 668.515625 467.171875 668.6875 466.960938 668.882812 466.765625 C 669.074219 466.570312 669.285156 466.398438 669.515625 466.246094 C 669.742188 466.09375 669.980469 465.964844 670.238281 465.859375 C 670.488281 465.753906 670.75 465.675781 671.019531 465.625 C 671.289062 465.570312 671.558594 465.542969 671.832031 465.542969 C 672.105469 465.542969 672.378906 465.570312 672.648438 465.625 C 672.914062 465.675781 673.175781 465.753906 673.429688 465.859375 C 673.683594 465.964844 673.921875 466.09375 674.152344 466.246094 C 674.378906 466.398438 674.589844 466.570312 674.785156 466.765625 C 674.976562 466.960938 675.152344 467.171875 675.300781 467.398438 C 675.457031 467.625 675.582031 467.867188 675.6875 468.117188 C 675.792969 468.371094 675.871094 468.632812 675.925781 468.902344 C 675.976562 469.171875 676.003906 469.441406 676.003906 469.714844 C 676.003906 469.988281 675.976562 470.261719 675.925781 470.53125 C 675.871094 470.800781 675.792969 471.0625 675.6875 471.3125 C 675.582031 471.566406 675.457031 471.808594 675.300781 472.035156 C 675.152344 472.261719 674.976562 472.472656 674.785156 472.667969 C 674.589844 472.859375 674.378906 473.035156 674.152344 473.1875 C 673.921875 473.335938 673.683594 473.464844 673.429688 473.570312 C 673.175781 473.675781 672.914062 473.757812 672.648438 473.808594 C 672.378906 473.863281 672.105469 473.890625 671.832031 473.890625 Z M 682.265625 456.675781 L 682.265625 434.242188 C 682.265625 433.902344 682.246094 433.5625 682.214844 433.222656 C 682.179688 432.878906 682.132812 432.542969 682.066406 432.207031 C 682 431.871094 681.914062 431.542969 681.816406 431.214844 C 681.71875 430.886719 681.601562 430.566406 681.472656 430.25 C 681.339844 429.933594 681.195312 429.625 681.035156 429.324219 C 680.875 429.023438 680.695312 428.730469 680.507812 428.449219 C 680.316406 428.164062 680.113281 427.890625 679.898438 427.625 C 679.683594 427.359375 679.453125 427.105469 679.210938 426.863281 C 678.96875 426.625 678.714844 426.394531 678.453125 426.179688 C 678.1875 425.960938 677.914062 425.757812 677.628906 425.566406 C 677.34375 425.378906 677.054688 425.203125 676.75 425.042969 C 676.449219 424.882812 676.140625 424.734375 675.824219 424.601562 C 675.507812 424.472656 675.1875 424.359375 674.859375 424.261719 C 674.535156 424.160156 674.203125 424.078125 673.867188 424.011719 C 673.53125 423.945312 673.195312 423.894531 672.855469 423.859375 C 672.515625 423.828125 672.175781 423.808594 671.832031 423.808594 C 671.492188 423.808594 671.152344 423.828125 670.808594 423.859375 C 670.46875 423.894531 670.132812 423.945312 669.796875 424.011719 C 669.460938 424.078125 669.132812 424.160156 668.804688 424.261719 C 668.476562 424.359375 668.15625 424.472656 667.839844 424.601562 C 667.523438 424.734375 667.214844 424.882812 666.914062 425.042969 C 666.613281 425.203125 666.320312 425.378906 666.035156 425.566406 C 665.75 425.757812 665.476562 425.960938 665.214844 426.179688 C 664.949219 426.394531 664.695312 426.625 664.453125 426.863281 C 664.214844 427.105469 663.984375 427.359375 663.769531 427.625 C 663.550781 427.890625 663.347656 428.164062 663.15625 428.449219 C 662.96875 428.730469 662.792969 429.023438 662.632812 429.324219 C 662.46875 429.625 662.324219 429.933594 662.195312 430.25 C 662.0625 430.566406 661.949219 430.886719 661.847656 431.214844 C 661.75 431.542969 661.667969 431.871094 661.601562 432.207031 C 661.53125 432.542969 661.480469 432.878906 661.449219 433.222656 C 661.414062 433.5625 661.398438 433.902344 661.398438 434.242188 L 661.398438 456.675781 C 660.953125 457.03125 660.523438 457.410156 660.117188 457.8125 C 659.710938 458.214844 659.324219 458.636719 658.960938 459.078125 C 658.59375 459.519531 658.253906 459.976562 657.9375 460.457031 C 657.621094 460.933594 657.328125 461.421875 657.0625 461.929688 C 656.796875 462.4375 656.554688 462.953125 656.34375 463.488281 C 656.128906 464.015625 655.941406 464.554688 655.785156 465.109375 C 655.628906 465.65625 655.5 466.214844 655.398438 466.777344 C 655.296875 467.339844 655.226562 467.910156 655.183594 468.480469 C 655.144531 469.050781 655.128906 469.621094 655.144531 470.191406 C 655.164062 470.765625 655.210938 471.335938 655.285156 471.902344 C 655.359375 472.472656 655.464844 473.03125 655.597656 473.589844 C 655.730469 474.144531 655.890625 474.695312 656.082031 475.234375 C 656.269531 475.773438 656.488281 476.304688 656.730469 476.820312 C 656.976562 477.335938 657.246094 477.839844 657.542969 478.332031 C 657.835938 478.824219 658.15625 479.296875 658.5 479.753906 C 658.847656 480.210938 659.214844 480.648438 659.601562 481.066406 C 659.992188 481.488281 660.402344 481.886719 660.832031 482.261719 C 661.265625 482.640625 661.710938 482.992188 662.179688 483.324219 C 662.644531 483.65625 663.128906 483.960938 663.625 484.242188 C 664.125 484.523438 664.636719 484.78125 665.160156 485.007812 C 665.6875 485.234375 666.222656 485.4375 666.765625 485.613281 C 667.3125 485.785156 667.863281 485.929688 668.425781 486.046875 C 668.988281 486.164062 669.550781 486.253906 670.117188 486.308594 C 670.691406 486.371094 671.261719 486.398438 671.832031 486.398438 C 672.40625 486.398438 672.976562 486.371094 673.542969 486.308594 C 674.113281 486.253906 674.679688 486.164062 675.238281 486.046875 C 675.800781 485.929688 676.351562 485.785156 676.898438 485.613281 C 677.445312 485.4375 677.980469 485.234375 678.503906 485.007812 C 679.027344 484.78125 679.539062 484.523438 680.035156 484.242188 C 680.535156 483.960938 681.019531 483.65625 681.484375 483.324219 C 681.953125 482.992188 682.402344 482.640625 682.832031 482.261719 C 683.261719 481.886719 683.671875 481.488281 684.0625 481.066406 C 684.453125 480.648438 684.820312 480.210938 685.160156 479.753906 C 685.507812 479.296875 685.828125 478.824219 686.125 478.332031 C 686.417969 477.839844 686.691406 477.335938 686.933594 476.820312 C 687.175781 476.304688 687.394531 475.773438 687.585938 475.234375 C 687.773438 474.695312 687.933594 474.144531 688.066406 473.589844 C 688.199219 473.03125 688.304688 472.472656 688.378906 471.902344 C 688.457031 471.335938 688.5 470.765625 688.515625 470.191406 C 688.535156 469.621094 688.523438 469.050781 688.480469 468.480469 C 688.4375 467.910156 688.367188 467.339844 688.269531 466.777344 C 688.167969 466.214844 688.039062 465.65625 687.878906 465.109375 C 687.722656 464.554688 687.535156 464.015625 687.324219 463.488281 C 687.109375 462.953125 686.871094 462.4375 686.605469 461.929688 C 686.335938 461.421875 686.042969 460.933594 685.726562 460.457031 C 685.410156 459.976562 685.070312 459.519531 684.707031 459.078125 C 684.34375 458.636719 683.957031 458.214844 683.546875 457.8125 C 683.140625 457.410156 682.714844 457.03125 682.265625 456.675781 Z M 671.832031 482.234375 C 671.167969 482.234375 670.511719 482.183594 669.859375 482.078125 C 669.207031 481.972656 668.5625 481.820312 667.933594 481.613281 C 667.304688 481.40625 666.695312 481.152344 666.105469 480.847656 C 665.515625 480.546875 664.957031 480.199219 664.421875 479.808594 C 663.886719 479.414062 663.390625 478.984375 662.921875 478.511719 C 662.457031 478.039062 662.03125 477.535156 661.648438 476.996094 C 661.261719 476.460938 660.921875 475.894531 660.625 475.300781 C 660.332031 474.710938 660.085938 474.09375 659.886719 473.464844 C 659.6875 472.832031 659.539062 472.1875 659.445312 471.535156 C 659.347656 470.878906 659.304688 470.21875 659.3125 469.558594 C 659.320312 468.894531 659.382812 468.238281 659.492188 467.585938 C 659.605469 466.929688 659.769531 466.292969 659.984375 465.667969 C 660.199219 465.039062 660.460938 464.433594 660.773438 463.847656 C 661.082031 463.265625 661.4375 462.707031 661.835938 462.175781 C 662.234375 461.648438 662.671875 461.15625 663.148438 460.695312 C 663.625 460.238281 664.136719 459.816406 664.679688 459.4375 C 664.960938 459.242188 665.179688 458.992188 665.339844 458.6875 C 665.496094 458.386719 665.574219 458.0625 665.570312 457.71875 L 665.570312 434.242188 C 665.570312 433.832031 665.613281 433.425781 665.695312 433.023438 C 665.773438 432.617188 665.890625 432.226562 666.050781 431.847656 C 666.207031 431.46875 666.398438 431.109375 666.628906 430.765625 C 666.855469 430.425781 667.117188 430.109375 667.40625 429.816406 C 667.695312 429.527344 668.011719 429.265625 668.355469 429.039062 C 668.695312 428.808594 669.054688 428.617188 669.4375 428.460938 C 669.816406 428.300781 670.207031 428.183594 670.609375 428.101562 C 671.015625 428.023438 671.421875 427.984375 671.832031 427.984375 C 672.242188 427.984375 672.648438 428.023438 673.054688 428.101562 C 673.457031 428.183594 673.847656 428.300781 674.226562 428.460938 C 674.609375 428.617188 674.96875 428.808594 675.308594 429.039062 C 675.652344 429.265625 675.96875 429.527344 676.257812 429.816406 C 676.550781 430.109375 676.808594 430.425781 677.039062 430.765625 C 677.265625 431.109375 677.457031 431.46875 677.617188 431.847656 C 677.773438 432.226562 677.890625 432.617188 677.972656 433.023438 C 678.054688 433.425781 678.089844 433.832031 678.089844 434.242188 L 678.089844 457.71875 C 678.089844 458.058594 678.171875 458.378906 678.328125 458.683594 C 678.488281 458.984375 678.707031 459.234375 678.984375 459.429688 C 679.527344 459.808594 680.042969 460.226562 680.519531 460.683594 C 681 461.144531 681.4375 461.636719 681.835938 462.164062 C 682.234375 462.695312 682.589844 463.25 682.902344 463.835938 C 683.214844 464.421875 683.476562 465.027344 683.691406 465.65625 C 683.90625 466.285156 684.070312 466.921875 684.183594 467.574219 C 684.296875 468.230469 684.359375 468.886719 684.367188 469.550781 C 684.375 470.214844 684.332031 470.875 684.234375 471.527344 C 684.140625 472.1875 683.992188 472.828125 683.796875 473.460938 C 683.597656 474.09375 683.347656 474.707031 683.054688 475.300781 C 682.757812 475.894531 682.417969 476.460938 682.03125 477 C 681.644531 477.539062 681.21875 478.046875 680.753906 478.515625 C 680.289062 478.988281 679.789062 479.417969 679.253906 479.808594 C 678.71875 480.203125 678.15625 480.550781 677.566406 480.855469 C 676.976562 481.15625 676.367188 481.410156 675.734375 481.617188 C 675.105469 481.824219 674.464844 481.980469 673.808594 482.082031 C 673.15625 482.183594 672.496094 482.238281 671.832031 482.234375 Z M 671.832031 482.234375 " fill-opacity="1" fill-rule="nonzero"/><path fill="#ffd048" d="M 699.925781 341.800781 L 686.089844 327.96875 C 685.894531 327.773438 685.683594 327.597656 685.453125 327.445312 C 685.222656 327.292969 684.980469 327.160156 684.726562 327.054688 C 684.472656 326.949219 684.207031 326.871094 683.9375 326.816406 C 683.667969 326.765625 683.394531 326.738281 683.117188 326.738281 C 682.84375 326.738281 682.570312 326.765625 682.296875 326.816406 C 682.027344 326.871094 681.761719 326.949219 681.507812 327.054688 C 681.253906 327.160156 681.011719 327.292969 680.78125 327.445312 C 680.550781 327.597656 680.339844 327.773438 680.148438 327.96875 L 643.554688 364.554688 C 643.363281 364.75 643.1875 364.960938 643.035156 365.191406 C 642.878906 365.421875 642.75 365.664062 642.644531 365.917969 C 642.539062 366.171875 642.460938 366.4375 642.40625 366.707031 C 642.351562 366.976562 642.324219 367.25 642.324219 367.523438 C 642.324219 367.800781 642.351562 368.074219 642.40625 368.34375 C 642.460938 368.617188 642.539062 368.878906 642.644531 369.132812 C 642.75 369.390625 642.878906 369.632812 643.035156 369.863281 C 643.1875 370.089844 643.363281 370.300781 643.554688 370.496094 L 657.394531 384.332031 C 657.589844 384.527344 657.800781 384.703125 658.03125 384.855469 C 658.261719 385.011719 658.503906 385.140625 658.757812 385.246094 C 659.011719 385.351562 659.277344 385.429688 659.546875 385.484375 C 659.816406 385.539062 660.089844 385.5625 660.367188 385.5625 C 660.644531 385.5625 660.917969 385.539062 661.183594 385.484375 C 661.457031 385.429688 661.71875 385.351562 661.972656 385.246094 C 662.226562 385.140625 662.46875 385.011719 662.699219 384.855469 C 662.929688 384.703125 663.140625 384.527344 663.339844 384.332031 L 699.925781 347.746094 C 700.125 347.550781 700.296875 347.339844 700.449219 347.109375 C 700.601562 346.878906 700.734375 346.636719 700.839844 346.382812 C 700.945312 346.128906 701.023438 345.863281 701.078125 345.59375 C 701.132812 345.324219 701.15625 345.050781 701.15625 344.773438 C 701.15625 344.496094 701.132812 344.222656 701.078125 343.957031 C 701.023438 343.683594 700.945312 343.421875 700.839844 343.167969 C 700.734375 342.914062 700.601562 342.671875 700.449219 342.441406 C 700.296875 342.210938 700.125 342 699.925781 341.800781 Z M 660.363281 381.363281 L 646.53125 367.523438 L 654.933594 359.121094 L 661.851562 366.039062 C 662.046875 366.238281 662.277344 366.390625 662.53125 366.496094 C 662.792969 366.605469 663.058594 366.65625 663.339844 366.65625 C 663.617188 366.65625 663.886719 366.605469 664.140625 366.496094 C 664.398438 366.390625 664.625 366.238281 664.824219 366.039062 C 665.023438 365.84375 665.171875 365.617188 665.277344 365.359375 C 665.386719 365.101562 665.441406 364.835938 665.441406 364.554688 C 665.441406 364.273438 665.386719 364.007812 665.277344 363.75 C 665.171875 363.492188 665.023438 363.265625 664.824219 363.070312 L 657.902344 356.148438 L 663.339844 350.71875 L 670.253906 357.636719 C 670.453125 357.832031 670.679688 357.984375 670.9375 358.09375 C 671.195312 358.199219 671.460938 358.25 671.742188 358.25 C 672.019531 358.25 672.289062 358.199219 672.546875 358.089844 C 672.804688 357.984375 673.03125 357.832031 673.226562 357.636719 C 673.425781 357.4375 673.574219 357.210938 673.683594 356.953125 C 673.789062 356.695312 673.839844 356.425781 673.839844 356.148438 C 673.839844 355.871094 673.789062 355.601562 673.683594 355.347656 C 673.578125 355.089844 673.425781 354.863281 673.226562 354.664062 L 666.308594 347.746094 L 671.742188 342.3125 L 678.660156 349.230469 C 678.855469 349.429688 679.085938 349.582031 679.339844 349.6875 C 679.601562 349.796875 679.867188 349.847656 680.148438 349.847656 C 680.425781 349.847656 680.695312 349.796875 680.949219 349.6875 C 681.207031 349.582031 681.433594 349.429688 681.632812 349.230469 C 681.832031 349.035156 681.980469 348.808594 682.085938 348.550781 C 682.195312 348.292969 682.246094 348.027344 682.246094 347.746094 C 682.246094 347.46875 682.195312 347.199219 682.085938 346.941406 C 681.980469 346.683594 681.832031 346.457031 681.632812 346.261719 L 674.710938 339.339844 L 683.117188 330.9375 L 696.957031 344.777344 Z M 660.363281 381.363281 " fill-opacity="1" fill-rule="nonzero"/><g clip-path="url(#b44d030df8)"><g clip-path="url(#6bc6c19c22)"><path stroke-linecap="butt" transform="matrix(0.459702, 0, 0, 0.461765, 732.287201, 415.685927)" fill="none" stroke-linejoin="miter" d="M 3.997806 0.00340631 L 166.297317 0.00340631 C 167.359487 0.00340631 168.37917 0.417917 169.126937 1.170803 C 169.874705 1.923688 170.299572 2.938816 170.299572 3.99624 L 170.299572 166.518093 C 170.299572 167.583976 169.874705 168.599103 169.126937 169.351989 C 168.37917 170.096416 167.359487 170.519385 166.297317 170.519385 L 3.997806 170.519385 C 2.944134 170.519385 1.924451 170.096416 1.176684 169.351989 C 0.420419 168.599103 -0.00444882 167.583976 -0.00444882 166.518093 L -0.00444882 3.99624 C -0.00444882 2.938816 0.420419 1.923688 1.176684 1.170803 C 1.924451 0.417917 2.944134 0.00340631 3.997806 0.00340631 " stroke="#2c306f" stroke-width="26" stroke-opacity="1" stroke-miterlimit="4"/></g></g><g clip-path="url(#23e8cfb041)"><path fill="#ffd048" d="M 812.738281 408.992188 L 731.074219 408.992188 C 730.691406 408.992188 730.3125 409.027344 729.9375 409.101562 C 729.5625 409.175781 729.199219 409.289062 728.84375 409.4375 C 728.488281 409.582031 728.152344 409.761719 727.835938 409.972656 C 727.515625 410.1875 727.222656 410.429688 726.949219 410.699219 C 726.679688 410.96875 726.4375 411.265625 726.226562 411.582031 C 726.011719 411.902344 725.832031 412.238281 725.6875 412.59375 C 725.539062 412.945312 725.429688 413.3125 725.355469 413.6875 C 725.28125 414.0625 725.242188 414.441406 725.242188 414.824219 L 725.242188 496.488281 C 725.242188 496.867188 725.28125 497.246094 725.355469 497.625 C 725.429688 498 725.539062 498.363281 725.6875 498.71875 C 725.832031 499.074219 726.011719 499.40625 726.226562 499.726562 C 726.4375 500.046875 726.679688 500.339844 726.949219 500.609375 C 727.222656 500.878906 727.515625 501.121094 727.835938 501.335938 C 728.152344 501.546875 728.488281 501.726562 728.84375 501.875 C 729.199219 502.023438 729.5625 502.132812 729.9375 502.207031 C 730.3125 502.28125 730.691406 502.320312 731.074219 502.320312 L 812.738281 502.320312 C 813.121094 502.320312 813.5 502.28125 813.875 502.207031 C 814.25 502.132812 814.617188 502.023438 814.96875 501.875 C 815.324219 501.726562 815.660156 501.546875 815.976562 501.335938 C 816.296875 501.121094 816.589844 500.878906 816.863281 500.609375 C 817.132812 500.339844 817.375 500.046875 817.585938 499.726562 C 817.800781 499.40625 817.980469 499.074219 818.125 498.71875 C 818.273438 498.363281 818.382812 498 818.457031 497.625 C 818.535156 497.246094 818.570312 496.867188 818.570312 496.488281 L 818.570312 414.824219 C 818.570312 414.441406 818.535156 414.0625 818.457031 413.6875 C 818.382812 413.3125 818.273438 412.945312 818.125 412.59375 C 817.980469 412.238281 817.800781 411.902344 817.585938 411.582031 C 817.375 411.265625 817.132812 410.96875 816.863281 410.699219 C 816.589844 410.429688 816.296875 410.1875 815.976562 409.972656 C 815.660156 409.761719 815.324219 409.582031 814.96875 409.4375 C 814.617188 409.289062 814.25 409.175781 813.875 409.101562 C 813.5 409.027344 813.121094 408.992188 812.738281 408.992188 Z M 806.90625 490.652344 L 736.910156 490.652344 L 736.910156 420.65625 L 806.90625 420.65625 Z M 806.90625 490.652344 " fill-opacity="1" fill-rule="nonzero"/></g><path fill="#ffd048" d="M 757.324219 473.15625 L 786.488281 473.15625 C 786.871094 473.15625 787.25 473.117188 787.628906 473.042969 C 788.003906 472.96875 788.367188 472.859375 788.722656 472.707031 C 789.074219 472.5625 789.410156 472.382812 789.730469 472.171875 C 790.046875 471.957031 790.34375 471.714844 790.613281 471.445312 C 790.886719 471.171875 791.128906 470.882812 791.339844 470.5625 C 791.550781 470.242188 791.730469 469.90625 791.878906 469.550781 C 792.023438 469.199219 792.136719 468.835938 792.210938 468.457031 C 792.285156 468.082031 792.320312 467.703125 792.320312 467.320312 C 792.320312 466.9375 792.285156 466.558594 792.210938 466.183594 C 792.136719 465.808594 792.023438 465.441406 791.878906 465.089844 C 791.730469 464.734375 791.550781 464.398438 791.339844 464.078125 C 791.128906 463.761719 790.886719 463.46875 790.613281 463.195312 C 790.34375 462.925781 790.046875 462.683594 789.730469 462.46875 C 789.410156 462.257812 789.074219 462.078125 788.722656 461.933594 C 788.367188 461.785156 788.003906 461.671875 787.628906 461.597656 C 787.25 461.523438 786.871094 461.488281 786.488281 461.488281 L 757.324219 461.488281 C 756.941406 461.488281 756.5625 461.523438 756.1875 461.597656 C 755.808594 461.671875 755.445312 461.785156 755.089844 461.933594 C 754.738281 462.078125 754.402344 462.257812 754.082031 462.46875 C 753.765625 462.683594 753.46875 462.925781 753.199219 463.195312 C 752.929688 463.46875 752.6875 463.761719 752.472656 464.078125 C 752.261719 464.398438 752.082031 464.734375 751.933594 465.089844 C 751.789062 465.441406 751.679688 465.808594 751.605469 466.183594 C 751.527344 466.558594 751.492188 466.9375 751.492188 467.320312 C 751.492188 467.703125 751.527344 468.082031 751.605469 468.457031 C 751.679688 468.835938 751.789062 469.199219 751.933594 469.550781 C 752.082031 469.90625 752.261719 470.242188 752.472656 470.5625 C 752.6875 470.882812 752.929688 471.171875 753.199219 471.445312 C 753.46875 471.714844 753.765625 471.957031 754.082031 472.171875 C 754.402344 472.382812 754.738281 472.5625 755.089844 472.707031 C 755.445312 472.859375 755.808594 472.96875 756.1875 473.042969 C 756.5625 473.117188 756.941406 473.15625 757.324219 473.15625 Z M 757.324219 473.15625 " fill-opacity="1" fill-rule="nonzero"/><path fill="#ffd048" d="M 757.324219 449.824219 L 786.488281 449.824219 C 786.871094 449.824219 787.25 449.785156 787.628906 449.710938 C 788.003906 449.636719 788.367188 449.527344 788.722656 449.375 C 789.074219 449.230469 789.410156 449.050781 789.730469 448.839844 C 790.046875 448.625 790.34375 448.382812 790.613281 448.113281 C 790.886719 447.839844 791.128906 447.550781 791.339844 447.230469 C 791.550781 446.910156 791.730469 446.574219 791.878906 446.21875 C 792.023438 445.867188 792.136719 445.503906 792.210938 445.125 C 792.285156 444.75 792.320312 444.371094 792.320312 443.988281 C 792.320312 443.605469 792.285156 443.226562 792.210938 442.851562 C 792.136719 442.476562 792.023438 442.109375 791.878906 441.757812 C 791.730469 441.402344 791.550781 441.066406 791.339844 440.746094 C 791.128906 440.429688 790.886719 440.136719 790.613281 439.863281 C 790.34375 439.59375 790.046875 439.351562 789.730469 439.136719 C 789.410156 438.925781 789.074219 438.746094 788.722656 438.601562 C 788.367188 438.453125 788.003906 438.339844 787.628906 438.265625 C 787.25 438.191406 786.871094 438.15625 786.488281 438.15625 L 757.324219 438.15625 C 756.941406 438.15625 756.5625 438.191406 756.1875 438.265625 C 755.808594 438.339844 755.445312 438.453125 755.089844 438.601562 C 754.738281 438.746094 754.402344 438.925781 754.082031 439.136719 C 753.765625 439.351562 753.46875 439.59375 753.199219 439.863281 C 752.929688 440.136719 752.6875 440.429688 752.472656 440.746094 C 752.261719 441.066406 752.082031 441.402344 751.933594 441.757812 C 751.789062 442.109375 751.679688 442.476562 751.605469 442.851562 C 751.527344 443.226562 751.492188 443.605469 751.492188 443.988281 C 751.492188 444.371094 751.527344 444.75 751.605469 445.125 C 751.679688 445.503906 751.789062 445.867188 751.933594 446.21875 C 752.082031 446.574219 752.261719 446.910156 752.472656 447.230469 C 752.6875 447.550781 752.929688 447.839844 753.199219 448.113281 C 753.46875 448.382812 753.765625 448.625 754.082031 448.839844 C 754.402344 449.050781 754.738281 449.230469 755.089844 449.375 C 755.445312 449.527344 755.808594 449.636719 756.1875 449.710938 C 756.5625 449.785156 756.941406 449.824219 757.324219 449.824219 Z M 757.324219 449.824219 " fill-opacity="1" fill-rule="nonzero"/></svg>