<svg xmlns="http://www.w3.org/2000/svg" xmlns:xlink="http://www.w3.org/1999/xlink" width="250" zoomAndPan="magnify" viewBox="0 0 187.5 112.499997" height="150" preserveAspectRatio="xMidYMid meet" version="1.0"><defs><g/><clipPath id="b7b6434bf8"><path d="M 65.675781 0 L 90.941406 0 L 90.941406 25.265625 L 65.675781 25.265625 Z M 65.675781 0 " clip-rule="nonzero"/></clipPath><clipPath id="ce2c69bc30"><path d="M 68.726562 0 L 87.886719 0 C 88.695312 0 89.472656 0.320312 90.042969 0.894531 C 90.617188 1.464844 90.9375 2.238281 90.9375 3.046875 L 90.9375 22.214844 C 90.9375 23.023438 90.617188 23.800781 90.042969 24.371094 C 89.472656 24.945312 88.695312 25.265625 87.886719 25.265625 L 68.726562 25.265625 C 67.917969 25.265625 67.140625 24.945312 66.570312 24.371094 C 65.996094 23.800781 65.675781 23.023438 65.675781 22.214844 L 65.675781 3.046875 C 65.675781 2.238281 65.996094 1.464844 66.570312 0.894531 C 67.140625 0.320312 67.917969 0 68.726562 0 " clip-rule="nonzero"/></clipPath><clipPath id="d368ad5939"><path d="M 97.039062 0 L 122 0 L 122 25 L 97.039062 25 Z M 97.039062 0 " clip-rule="nonzero"/></clipPath><clipPath id="f04d642388"><path d="M 100.035156 0 L 118.832031 0 C 119.625 0 120.386719 0.316406 120.949219 0.878906 C 121.507812 1.4375 121.824219 2.199219 121.824219 2.996094 L 121.824219 21.824219 C 121.824219 22.617188 121.507812 23.378906 120.949219 23.941406 C 120.386719 24.5 119.625 24.816406 118.832031 24.816406 L 100.035156 24.816406 C 99.242188 24.816406 98.480469 24.5 97.917969 23.941406 C 97.355469 23.378906 97.039062 22.617188 97.039062 21.824219 L 97.039062 2.996094 C 97.039062 2.199219 97.355469 1.4375 97.917969 0.878906 C 98.480469 0.316406 99.242188 0 100.035156 0 " clip-rule="nonzero"/></clipPath><clipPath id="32e1320a3f"><path d="M 98.796875 5 L 120.171875 5 L 120.171875 20 L 98.796875 20 Z M 98.796875 5 " clip-rule="nonzero"/></clipPath><clipPath id="3378d4f24b"><path d="M 65.675781 31.332031 L 90.839844 31.332031 L 90.839844 56.496094 L 65.675781 56.496094 Z M 65.675781 31.332031 " clip-rule="nonzero"/></clipPath><clipPath id="54c8f173d3"><path d="M 68.667969 31.332031 L 87.464844 31.332031 C 88.257812 31.332031 89.019531 31.648438 89.582031 32.210938 C 90.144531 32.773438 90.460938 33.535156 90.460938 34.328125 L 90.460938 53.15625 C 90.460938 53.949219 90.144531 54.710938 89.582031 55.273438 C 89.019531 55.835938 88.257812 56.152344 87.464844 56.152344 L 68.667969 56.152344 C 67.875 56.152344 67.113281 55.835938 66.550781 55.273438 C 65.992188 54.710938 65.675781 53.949219 65.675781 53.15625 L 65.675781 34.328125 C 65.675781 33.535156 65.992188 32.773438 66.550781 32.210938 C 67.113281 31.648438 67.875 31.332031 68.667969 31.332031 " clip-rule="nonzero"/></clipPath><clipPath id="bb24aaf0e0"><path d="M 72 33.242188 L 84 33.242188 L 84 54 L 72 54 Z M 72 33.242188 " clip-rule="nonzero"/></clipPath><clipPath id="dcee13efbe"><path d="M 97.042969 31.332031 L 122.304688 31.332031 L 122.304688 56.597656 L 97.042969 56.597656 Z M 97.042969 31.332031 " clip-rule="nonzero"/></clipPath><clipPath id="cf4b2fa2c8"><path d="M 100.09375 31.332031 L 119.25 31.332031 C 120.0625 31.332031 120.835938 31.652344 121.410156 32.226562 C 121.984375 32.796875 122.304688 33.574219 122.304688 34.382812 L 122.304688 53.550781 C 122.304688 54.359375 121.984375 55.132812 121.410156 55.703125 C 120.835938 56.277344 120.0625 56.597656 119.25 56.597656 L 100.09375 56.597656 C 99.285156 56.597656 98.507812 56.277344 97.9375 55.703125 C 97.363281 55.132812 97.042969 54.359375 97.042969 53.550781 L 97.042969 34.382812 C 97.042969 33.574219 97.363281 32.796875 97.9375 32.226562 C 98.507812 31.652344 99.285156 31.332031 100.09375 31.332031 " clip-rule="nonzero"/></clipPath><clipPath id="bcb23a6a9d"><path d="M 98.535156 33.242188 L 119.914062 33.242188 L 119.914062 54.621094 L 98.535156 54.621094 Z M 98.535156 33.242188 " clip-rule="nonzero"/></clipPath><clipPath id="0cb4c33450"><path d="M 20 105 L 28 105 L 28 112.003906 L 20 112.003906 Z M 20 105 " clip-rule="nonzero"/></clipPath><clipPath id="b3ece4a9cf"><path d="M 29 105 L 36 105 L 36 112.003906 L 29 112.003906 Z M 29 105 " clip-rule="nonzero"/></clipPath><clipPath id="abcdd424fc"><path d="M 37 105 L 44 105 L 44 112.003906 L 37 112.003906 Z M 37 105 " clip-rule="nonzero"/></clipPath><clipPath id="c777c35704"><path d="M 45 105 L 53 105 L 53 112.003906 L 45 112.003906 Z M 45 105 " clip-rule="nonzero"/></clipPath><clipPath id="51e2d6063a"><path d="M 66 105 L 71 105 L 71 112.003906 L 66 112.003906 Z M 66 105 " clip-rule="nonzero"/></clipPath><clipPath id="c3ed5b6196"><path d="M 72 105 L 80 105 L 80 112.003906 L 72 112.003906 Z M 72 105 " clip-rule="nonzero"/></clipPath><clipPath id="ca1f0add03"><path d="M 153 105 L 159 105 L 159 112.003906 L 153 112.003906 Z M 153 105 " clip-rule="nonzero"/></clipPath></defs><g clip-path="url(#b7b6434bf8)"><g clip-path="url(#ce2c69bc30)"><path stroke-linecap="butt" transform="matrix(0.99078, 0, 0, 0.989567, 65.675963, -0.000000000000006905)" fill="none" stroke-linejoin="miter" d="M 3.078988 0.000000000000006977 L 22.417446 0.000000000000006977 C 23.233564 0.000000000000006977 24.018142 0.323689 24.593761 0.903962 C 25.173324 1.480287 25.496617 2.261879 25.496617 3.078997 L 25.496617 22.44905 C 25.496617 23.266168 25.173324 24.051707 24.593761 24.628032 C 24.018142 25.208305 23.233564 25.531994 22.417446 25.531994 L 3.078988 25.531994 C 2.26287 25.531994 1.478292 25.208305 0.902672 24.628032 C 0.32311 24.051707 -0.000183224 23.266168 -0.000183224 22.44905 L -0.000183224 3.078997 C -0.000183224 2.261879 0.32311 1.480287 0.902672 0.903962 C 1.478292 0.323689 2.26287 0.000000000000006977 3.078988 0.000000000000006977 " stroke="#2c306f" stroke-width="1.540912" stroke-opacity="1" stroke-miterlimit="4"/></g></g><g clip-path="url(#d368ad5939)"><g clip-path="url(#f04d642388)"><path fill="#2c306f" d="M 97.039062 0 L 121.464844 0 L 121.464844 25.164062 L 97.039062 25.164062 Z M 97.039062 0 " fill-opacity="1" fill-rule="nonzero"/></g></g><g clip-path="url(#32e1320a3f)"><path fill="#c2f0e6" d="M 119.503906 11.917969 L 118.835938 11.917969 L 118.835938 9.246094 C 118.835938 9.066406 118.804688 8.898438 118.734375 8.734375 C 118.667969 8.570312 118.570312 8.425781 118.445312 8.300781 C 118.320312 8.175781 118.175781 8.078125 118.011719 8.011719 C 117.847656 7.941406 117.679688 7.90625 117.5 7.90625 L 116.164062 7.90625 L 116.164062 7.238281 C 116.164062 7.0625 116.128906 6.890625 116.0625 6.730469 C 115.996094 6.566406 115.898438 6.421875 115.773438 6.296875 C 115.648438 6.171875 115.503906 6.074219 115.339844 6.003906 C 115.175781 5.9375 115.003906 5.902344 114.828125 5.902344 L 112.824219 5.902344 C 112.648438 5.902344 112.476562 5.9375 112.3125 6.003906 C 112.148438 6.074219 112.003906 6.171875 111.878906 6.296875 C 111.753906 6.421875 111.65625 6.566406 111.589844 6.730469 C 111.523438 6.890625 111.488281 7.0625 111.488281 7.238281 L 111.488281 11.917969 L 107.480469 11.917969 L 107.480469 7.238281 C 107.480469 7.0625 107.445312 6.890625 107.378906 6.730469 C 107.308594 6.566406 107.214844 6.421875 107.089844 6.296875 C 106.964844 6.171875 106.820312 6.074219 106.65625 6.003906 C 106.492188 5.9375 106.320312 5.902344 106.144531 5.902344 L 104.140625 5.902344 C 103.960938 5.902344 103.792969 5.9375 103.628906 6.003906 C 103.464844 6.074219 103.320312 6.171875 103.195312 6.296875 C 103.070312 6.421875 102.972656 6.566406 102.90625 6.730469 C 102.835938 6.890625 102.804688 7.0625 102.804688 7.238281 L 102.804688 7.90625 L 101.46875 7.90625 C 101.289062 7.90625 101.121094 7.941406 100.957031 8.011719 C 100.792969 8.078125 100.648438 8.175781 100.523438 8.300781 C 100.398438 8.425781 100.300781 8.570312 100.234375 8.734375 C 100.164062 8.898438 100.132812 9.066406 100.132812 9.246094 L 100.132812 11.917969 L 99.464844 11.917969 C 99.277344 11.917969 99.121094 11.980469 98.992188 12.113281 C 98.859375 12.242188 98.796875 12.398438 98.796875 12.585938 C 98.796875 12.769531 98.859375 12.925781 98.992188 13.058594 C 99.121094 13.1875 99.277344 13.253906 99.464844 13.253906 L 100.132812 13.253906 L 100.132812 15.925781 C 100.132812 16.101562 100.164062 16.273438 100.234375 16.4375 C 100.300781 16.601562 100.398438 16.746094 100.523438 16.871094 C 100.648438 16.996094 100.792969 17.089844 100.957031 17.160156 C 101.121094 17.226562 101.289062 17.261719 101.46875 17.261719 L 102.804688 17.261719 L 102.804688 17.929688 C 102.804688 18.105469 102.835938 18.277344 102.90625 18.441406 C 102.972656 18.605469 103.070312 18.75 103.195312 18.875 C 103.320312 19 103.464844 19.097656 103.628906 19.164062 C 103.792969 19.230469 103.960938 19.265625 104.140625 19.265625 L 106.144531 19.265625 C 106.320312 19.265625 106.492188 19.230469 106.65625 19.164062 C 106.820312 19.097656 106.964844 19 107.089844 18.875 C 107.214844 18.75 107.308594 18.605469 107.378906 18.441406 C 107.445312 18.277344 107.480469 18.105469 107.480469 17.929688 L 107.480469 13.253906 L 111.488281 13.253906 L 111.488281 17.929688 C 111.488281 18.105469 111.523438 18.277344 111.589844 18.441406 C 111.65625 18.605469 111.753906 18.75 111.878906 18.875 C 112.003906 19 112.148438 19.097656 112.3125 19.164062 C 112.476562 19.230469 112.648438 19.265625 112.824219 19.265625 L 114.828125 19.265625 C 115.003906 19.265625 115.175781 19.230469 115.339844 19.164062 C 115.503906 19.097656 115.648438 19 115.773438 18.875 C 115.898438 18.75 115.996094 18.605469 116.0625 18.441406 C 116.128906 18.277344 116.164062 18.105469 116.164062 17.929688 L 116.164062 17.261719 L 117.5 17.261719 C 117.679688 17.261719 117.847656 17.226562 118.011719 17.160156 C 118.175781 17.089844 118.320312 16.996094 118.445312 16.871094 C 118.570312 16.746094 118.667969 16.601562 118.734375 16.4375 C 118.804688 16.273438 118.835938 16.101562 118.835938 15.925781 L 118.835938 13.253906 L 119.503906 13.253906 C 119.691406 13.253906 119.847656 13.1875 119.976562 13.058594 C 120.109375 12.925781 120.171875 12.769531 120.171875 12.585938 C 120.171875 12.398438 120.109375 12.242188 119.976562 12.113281 C 119.847656 11.980469 119.691406 11.917969 119.503906 11.917969 Z M 101.46875 15.925781 L 101.46875 9.246094 L 102.804688 9.246094 L 102.804688 15.925781 Z M 106.144531 17.929688 L 104.140625 17.929688 L 104.140625 7.238281 L 106.144531 7.238281 Z M 114.828125 17.929688 L 112.824219 17.929688 L 112.824219 7.238281 L 114.828125 7.238281 L 114.828125 16.578125 C 114.828125 16.582031 114.828125 16.589844 114.828125 16.59375 C 114.828125 16.597656 114.828125 16.601562 114.828125 16.609375 Z M 117.5 15.925781 L 116.164062 15.925781 L 116.164062 9.246094 L 117.5 9.246094 Z M 117.5 15.925781 " fill-opacity="1" fill-rule="nonzero"/></g><g clip-path="url(#3378d4f24b)"><g clip-path="url(#54c8f173d3)"><path fill="#2c306f" d="M 65.675781 31.332031 L 90.097656 31.332031 L 90.097656 56.496094 L 65.675781 56.496094 Z M 65.675781 31.332031 " fill-opacity="1" fill-rule="nonzero"/></g></g><g clip-path="url(#bb24aaf0e0)"><path fill="#c2f0e6" d="M 78.742188 46.019531 L 78.742188 40.589844 C 78.742188 40.40625 78.675781 40.25 78.546875 40.117188 C 78.414062 39.988281 78.257812 39.921875 78.074219 39.921875 C 77.890625 39.921875 77.730469 39.988281 77.601562 40.117188 C 77.472656 40.25 77.40625 40.40625 77.40625 40.589844 L 77.40625 46.019531 C 77.195312 46.070312 76.996094 46.148438 76.808594 46.253906 C 76.617188 46.355469 76.441406 46.476562 76.285156 46.621094 C 76.125 46.765625 75.984375 46.925781 75.863281 47.105469 C 75.742188 47.285156 75.644531 47.472656 75.566406 47.675781 C 75.492188 47.878906 75.445312 48.085938 75.417969 48.300781 C 75.394531 48.515625 75.394531 48.730469 75.421875 48.941406 C 75.449219 49.15625 75.503906 49.363281 75.578125 49.566406 C 75.65625 49.765625 75.757812 49.953125 75.878906 50.132812 C 76.003906 50.308594 76.144531 50.46875 76.308594 50.609375 C 76.46875 50.753906 76.644531 50.875 76.835938 50.972656 C 77.027344 51.074219 77.226562 51.148438 77.4375 51.199219 C 77.644531 51.253906 77.859375 51.277344 78.074219 51.277344 C 78.289062 51.277344 78.5 51.253906 78.710938 51.199219 C 78.921875 51.148438 79.121094 51.074219 79.3125 50.972656 C 79.503906 50.875 79.679688 50.753906 79.839844 50.609375 C 80 50.46875 80.144531 50.308594 80.265625 50.132812 C 80.390625 49.953125 80.492188 49.765625 80.566406 49.566406 C 80.644531 49.363281 80.699219 49.15625 80.722656 48.941406 C 80.75 48.730469 80.753906 48.515625 80.726562 48.300781 C 80.703125 48.085938 80.652344 47.878906 80.578125 47.675781 C 80.503906 47.472656 80.40625 47.285156 80.285156 47.105469 C 80.164062 46.925781 80.023438 46.765625 79.863281 46.621094 C 79.703125 46.476562 79.527344 46.355469 79.339844 46.253906 C 79.148438 46.148438 78.949219 46.070312 78.742188 46.019531 Z M 78.074219 49.941406 C 77.894531 49.941406 77.726562 49.910156 77.5625 49.839844 C 77.398438 49.773438 77.253906 49.675781 77.128906 49.550781 C 77.003906 49.425781 76.90625 49.28125 76.839844 49.117188 C 76.769531 48.953125 76.738281 48.785156 76.738281 48.605469 C 76.738281 48.429688 76.769531 48.257812 76.839844 48.097656 C 76.90625 47.933594 77.003906 47.789062 77.128906 47.664062 C 77.253906 47.535156 77.398438 47.441406 77.5625 47.371094 C 77.726562 47.304688 77.894531 47.269531 78.074219 47.269531 C 78.25 47.269531 78.421875 47.304688 78.585938 47.371094 C 78.75 47.441406 78.894531 47.535156 79.019531 47.664062 C 79.144531 47.789062 79.242188 47.933594 79.308594 48.097656 C 79.375 48.257812 79.410156 48.429688 79.410156 48.605469 C 79.410156 48.785156 79.375 48.953125 79.308594 49.117188 C 79.242188 49.28125 79.144531 49.425781 79.019531 49.550781 C 78.894531 49.675781 78.75 49.773438 78.585938 49.839844 C 78.421875 49.910156 78.25 49.941406 78.074219 49.941406 Z M 81.414062 44.433594 L 81.414062 37.25 C 81.414062 36.808594 81.328125 36.382812 81.160156 35.972656 C 80.988281 35.5625 80.75 35.203125 80.4375 34.886719 C 80.121094 34.574219 79.761719 34.332031 79.351562 34.164062 C 78.941406 33.996094 78.515625 33.910156 78.074219 33.910156 C 77.628906 33.910156 77.203125 33.996094 76.796875 34.164062 C 76.386719 34.332031 76.023438 34.574219 75.710938 34.886719 C 75.398438 35.203125 75.15625 35.5625 74.988281 35.972656 C 74.816406 36.382812 74.734375 36.808594 74.734375 37.25 L 74.734375 44.433594 C 74.445312 44.660156 74.1875 44.917969 73.953125 45.203125 C 73.71875 45.484375 73.515625 45.789062 73.34375 46.113281 C 73.171875 46.4375 73.035156 46.777344 72.9375 47.132812 C 72.835938 47.484375 72.769531 47.84375 72.742188 48.210938 C 72.714844 48.578125 72.726562 48.941406 72.777344 49.308594 C 72.824219 49.671875 72.910156 50.027344 73.03125 50.375 C 73.152344 50.71875 73.308594 51.050781 73.5 51.367188 C 73.6875 51.679688 73.90625 51.972656 74.160156 52.242188 C 74.410156 52.511719 74.683594 52.75 74.984375 52.964844 C 75.28125 53.175781 75.601562 53.355469 75.9375 53.503906 C 76.273438 53.648438 76.625 53.761719 76.984375 53.835938 C 77.34375 53.910156 77.707031 53.949219 78.074219 53.949219 C 78.441406 53.949219 78.804688 53.910156 79.164062 53.835938 C 79.523438 53.761719 79.871094 53.648438 80.210938 53.503906 C 80.546875 53.355469 80.863281 53.175781 81.164062 52.964844 C 81.464844 52.75 81.738281 52.511719 81.988281 52.242188 C 82.238281 51.972656 82.460938 51.679688 82.648438 51.367188 C 82.839844 51.050781 82.996094 50.71875 83.117188 50.375 C 83.238281 50.027344 83.324219 49.671875 83.371094 49.308594 C 83.421875 48.941406 83.429688 48.578125 83.402344 48.210938 C 83.375 47.84375 83.3125 47.484375 83.210938 47.132812 C 83.109375 46.777344 82.972656 46.4375 82.804688 46.113281 C 82.632812 45.789062 82.429688 45.484375 82.195312 45.203125 C 81.960938 44.917969 81.699219 44.660156 81.414062 44.433594 Z M 78.074219 52.617188 C 77.648438 52.617188 77.230469 52.550781 76.824219 52.417969 C 76.417969 52.285156 76.046875 52.089844 75.699219 51.839844 C 75.355469 51.585938 75.0625 51.285156 74.8125 50.9375 C 74.566406 50.589844 74.375 50.214844 74.25 49.808594 C 74.121094 49.398438 74.058594 48.984375 74.066406 48.554688 C 74.070312 48.128906 74.140625 47.714844 74.28125 47.308594 C 74.417969 46.90625 74.617188 46.535156 74.871094 46.195312 C 75.128906 45.851562 75.433594 45.5625 75.785156 45.316406 C 75.976562 45.183594 76.070312 45 76.070312 44.765625 L 76.070312 37.25 C 76.070312 36.984375 76.121094 36.730469 76.222656 36.484375 C 76.324219 36.238281 76.46875 36.019531 76.65625 35.832031 C 76.84375 35.644531 77.0625 35.5 77.308594 35.398438 C 77.550781 35.296875 77.808594 35.246094 78.074219 35.246094 C 78.339844 35.246094 78.59375 35.296875 78.839844 35.398438 C 79.085938 35.5 79.304688 35.644531 79.492188 35.832031 C 79.679688 36.019531 79.824219 36.238281 79.925781 36.484375 C 80.027344 36.730469 80.078125 36.984375 80.078125 37.25 L 80.078125 44.765625 C 80.078125 44.996094 80.171875 45.179688 80.363281 45.3125 C 80.714844 45.558594 81.019531 45.847656 81.277344 46.191406 C 81.535156 46.53125 81.730469 46.902344 81.871094 47.308594 C 82.007812 47.710938 82.082031 48.128906 82.085938 48.554688 C 82.09375 48.980469 82.03125 49.398438 81.902344 49.804688 C 81.777344 50.214844 81.585938 50.589844 81.339844 50.9375 C 81.089844 51.285156 80.792969 51.585938 80.449219 51.839844 C 80.105469 52.09375 79.730469 52.285156 79.324219 52.417969 C 78.917969 52.550781 78.5 52.617188 78.074219 52.617188 Z M 78.074219 52.617188 " fill-opacity="1" fill-rule="nonzero"/></g><path fill="#ffd048" d="M 86.933594 8.023438 L 82.535156 3.625 C 82.410156 3.5 82.265625 3.402344 82.101562 3.332031 C 81.9375 3.265625 81.765625 3.230469 81.589844 3.230469 C 81.414062 3.230469 81.242188 3.265625 81.078125 3.332031 C 80.914062 3.402344 80.769531 3.5 80.644531 3.625 L 69.011719 15.257812 C 68.886719 15.382812 68.789062 15.527344 68.71875 15.691406 C 68.652344 15.855469 68.617188 16.023438 68.617188 16.203125 C 68.617188 16.378906 68.652344 16.550781 68.71875 16.714844 C 68.789062 16.875 68.886719 17.019531 69.011719 17.148438 L 73.410156 21.546875 C 73.535156 21.671875 73.679688 21.769531 73.84375 21.835938 C 74.007812 21.902344 74.179688 21.9375 74.355469 21.9375 C 74.53125 21.9375 74.703125 21.902344 74.867188 21.835938 C 75.03125 21.769531 75.175781 21.671875 75.300781 21.546875 L 86.933594 9.914062 C 87.058594 9.785156 87.15625 9.640625 87.222656 9.480469 C 87.292969 9.316406 87.324219 9.144531 87.324219 8.96875 C 87.324219 8.789062 87.292969 8.621094 87.222656 8.457031 C 87.15625 8.292969 87.058594 8.148438 86.933594 8.023438 Z M 74.355469 20.601562 L 69.957031 16.203125 L 72.628906 13.527344 L 74.828125 15.730469 C 74.957031 15.859375 75.117188 15.925781 75.300781 15.925781 C 75.484375 15.925781 75.640625 15.859375 75.773438 15.730469 C 75.902344 15.597656 75.96875 15.441406 75.96875 15.257812 C 75.96875 15.074219 75.902344 14.914062 75.773438 14.785156 L 73.570312 12.585938 L 75.300781 10.855469 L 77.5 13.058594 C 77.628906 13.1875 77.789062 13.253906 77.972656 13.253906 C 78.15625 13.253906 78.3125 13.1875 78.445312 13.058594 C 78.574219 12.925781 78.640625 12.769531 78.640625 12.585938 C 78.640625 12.398438 78.574219 12.242188 78.445312 12.113281 L 76.246094 9.914062 L 77.972656 8.183594 L 80.171875 10.386719 C 80.300781 10.515625 80.460938 10.582031 80.644531 10.582031 C 80.828125 10.582031 80.988281 10.515625 81.117188 10.386719 C 81.246094 10.253906 81.3125 10.097656 81.3125 9.914062 C 81.3125 9.726562 81.246094 9.570312 81.117188 9.441406 L 78.917969 7.238281 L 81.589844 4.566406 L 85.988281 8.96875 Z M 74.355469 20.601562 " fill-opacity="1" fill-rule="nonzero"/><g clip-path="url(#dcee13efbe)"><g clip-path="url(#cf4b2fa2c8)"><path stroke-linecap="butt" transform="matrix(0.99078, 0, 0, 0.989567, 97.041677, 31.333003)" fill="none" stroke-linejoin="miter" d="M 3.080476 -0.00098217 L 22.414991 -0.00098217 C 23.235052 -0.00098217 24.015687 0.322707 24.595249 0.90298 C 25.174811 1.479305 25.498104 2.264844 25.498104 3.081963 L 25.498104 22.452015 C 25.498104 23.269133 25.174811 24.050725 24.595249 24.62705 C 24.015687 25.207323 23.235052 25.531012 22.414991 25.531012 L 3.080476 25.531012 C 2.264357 25.531012 1.47978 25.207323 0.90416 24.62705 C 0.324597 24.050725 0.0013042 23.269133 0.0013042 22.452015 L 0.0013042 3.081963 C 0.0013042 2.264844 0.324597 1.479305 0.90416 0.90298 C 1.47978 0.322707 2.264357 -0.00098217 3.080476 -0.00098217 " stroke="#2c306f" stroke-width="1.540912" stroke-opacity="1" stroke-miterlimit="4"/></g></g><g clip-path="url(#bcb23a6a9d)"><path fill="#ffd048" d="M 122.1875 29.058594 L 96.492188 29.058594 C 96.25 29.058594 96.015625 29.105469 95.789062 29.199219 C 95.566406 29.292969 95.367188 29.425781 95.195312 29.597656 C 95.023438 29.769531 94.890625 29.96875 94.796875 30.195312 C 94.703125 30.417969 94.65625 30.652344 94.65625 30.894531 L 94.65625 56.59375 C 94.65625 56.835938 94.703125 57.070312 94.796875 57.296875 C 94.890625 57.519531 95.023438 57.71875 95.195312 57.890625 C 95.367188 58.0625 95.566406 58.195312 95.789062 58.289062 C 96.015625 58.382812 96.25 58.429688 96.492188 58.429688 L 122.1875 58.429688 C 122.433594 58.429688 122.667969 58.382812 122.890625 58.289062 C 123.117188 58.195312 123.316406 58.0625 123.488281 57.890625 C 123.660156 57.71875 123.792969 57.519531 123.882812 57.296875 C 123.976562 57.070312 124.023438 56.835938 124.023438 56.59375 L 124.023438 30.894531 C 124.023438 30.652344 123.976562 30.417969 123.882812 30.195312 C 123.792969 29.96875 123.660156 29.769531 123.488281 29.597656 C 123.316406 29.425781 123.117188 29.292969 122.890625 29.199219 C 122.667969 29.105469 122.433594 29.058594 122.1875 29.058594 Z M 120.355469 54.757812 L 98.328125 54.757812 L 98.328125 32.730469 L 120.355469 32.730469 Z M 120.355469 54.757812 " fill-opacity="1" fill-rule="nonzero"/></g><path fill="#ffd048" d="M 104.75 49.25 L 113.929688 49.25 C 114.171875 49.25 114.40625 49.203125 114.632812 49.109375 C 114.855469 49.019531 115.054688 48.886719 115.226562 48.714844 C 115.398438 48.542969 115.53125 48.34375 115.625 48.117188 C 115.71875 47.894531 115.765625 47.660156 115.765625 47.414062 C 115.765625 47.171875 115.71875 46.9375 115.625 46.710938 C 115.53125 46.488281 115.398438 46.289062 115.226562 46.117188 C 115.054688 45.945312 114.855469 45.8125 114.632812 45.71875 C 114.40625 45.625 114.171875 45.578125 113.929688 45.578125 L 104.75 45.578125 C 104.507812 45.578125 104.273438 45.625 104.050781 45.71875 C 103.824219 45.8125 103.625 45.945312 103.453125 46.117188 C 103.28125 46.289062 103.148438 46.488281 103.054688 46.710938 C 102.964844 46.9375 102.917969 47.171875 102.917969 47.414062 C 102.917969 47.660156 102.964844 47.894531 103.054688 48.117188 C 103.148438 48.34375 103.28125 48.542969 103.453125 48.714844 C 103.625 48.886719 103.824219 49.019531 104.050781 49.109375 C 104.273438 49.203125 104.507812 49.25 104.75 49.25 Z M 104.75 49.25 " fill-opacity="1" fill-rule="nonzero"/><path fill="#ffd048" d="M 104.75 41.910156 L 113.929688 41.910156 C 114.171875 41.910156 114.40625 41.863281 114.632812 41.769531 C 114.855469 41.675781 115.054688 41.542969 115.226562 41.371094 C 115.398438 41.199219 115.53125 41 115.625 40.777344 C 115.71875 40.550781 115.765625 40.316406 115.765625 40.074219 C 115.765625 39.828125 115.71875 39.597656 115.625 39.371094 C 115.53125 39.144531 115.398438 38.949219 115.226562 38.777344 C 115.054688 38.601562 114.855469 38.46875 114.632812 38.378906 C 114.40625 38.285156 114.171875 38.238281 113.929688 38.238281 L 104.75 38.238281 C 104.507812 38.238281 104.273438 38.285156 104.050781 38.378906 C 103.824219 38.46875 103.625 38.601562 103.453125 38.777344 C 103.28125 38.949219 103.148438 39.144531 103.054688 39.371094 C 102.964844 39.597656 102.917969 39.828125 102.917969 40.074219 C 102.917969 40.316406 102.964844 40.550781 103.054688 40.777344 C 103.148438 41 103.28125 41.199219 103.453125 41.371094 C 103.625 41.542969 103.824219 41.675781 104.050781 41.769531 C 104.273438 41.863281 104.507812 41.910156 104.75 41.910156 Z M 104.75 41.910156 " fill-opacity="1" fill-rule="nonzero"/><g fill="#391c19" fill-opacity="1"><g transform="translate(11.65637, 93.705604)"><g><path d="M 20.511719 -10.382812 C 19.847656 -6.847656 16.882812 -4.292969 13.347656 -4.292969 C 9.402344 -4.292969 6.28125 -7.605469 6.28125 -11.738281 C 6.28125 -15.902344 9.402344 -19.25 13.347656 -19.25 C 15.777344 -19.25 18.175781 -18.019531 19.878906 -15.492188 L 23.699219 -18.207031 C 21.585938 -21.648438 17.703125 -23.917969 13.316406 -23.917969 C 6.625 -23.917969 1.261719 -18.460938 1.261719 -11.738281 C 1.261719 -5.015625 6.625 0.410156 13.347656 0.410156 C 19.597656 0.410156 24.773438 -4.355469 25.464844 -10.382812 Z M 20.511719 -10.382812 "/></g></g></g><g fill="#391c19" fill-opacity="1"><g transform="translate(38.384205, 93.705604)"><g><path d="M 9.183594 -16.28125 C 4.605469 -16.28125 0.914062 -12.558594 0.914062 -7.953125 C 0.914062 -3.40625 4.605469 0.347656 9.183594 0.347656 C 13.757812 0.347656 17.578125 -3.40625 17.578125 -7.953125 C 17.578125 -12.558594 13.757812 -16.28125 9.183594 -16.28125 Z M 9.183594 -4.101562 C 7.132812 -4.101562 5.460938 -5.679688 5.460938 -7.953125 C 5.460938 -10.191406 7.132812 -11.800781 9.183594 -11.800781 C 11.359375 -11.800781 13 -10.191406 13 -7.953125 C 13 -5.679688 11.359375 -4.101562 9.183594 -4.101562 Z M 9.183594 -4.101562 "/></g></g></g><g fill="#391c19" fill-opacity="1"><g transform="translate(56.875956, 93.705604)"><g><path d="M 17.640625 -7.953125 C 17.640625 -12.558594 14.609375 -16.28125 10.253906 -16.28125 C 8.804688 -16.28125 6.941406 -15.839844 6.058594 -14.832031 L 6.058594 -15.9375 L 1.578125 -15.9375 L 1.578125 0 L 6.058594 0 L 6.058594 -7.953125 C 6.058594 -10.507812 7.890625 -11.800781 9.878906 -11.800781 C 11.707031 -11.800781 13.191406 -10.507812 13.191406 -7.953125 L 13.191406 0 L 17.640625 0 Z M 17.640625 -7.953125 "/></g></g></g><g fill="#391c19" fill-opacity="1"><g transform="translate(75.872599, 93.705604)"><g><path d="M 8.582031 -8.269531 L 4.765625 -15.9375 L -0.1875 -15.9375 L 8.425781 0.410156 L 16.347656 -15.9375 L 11.992188 -15.9375 Z M 8.582031 -8.269531 "/></g></g></g><g fill="#391c19" fill-opacity="1"><g transform="translate(92.029211, 93.705604)"><g><path d="M 13 -5.710938 C 12.273438 -4.574219 10.917969 -4.101562 9.5625 -4.101562 C 9.089844 -4.101562 8.644531 -4.132812 8.234375 -4.292969 L 17.136719 -10.664062 C 16.15625 -13.632812 13.128906 -16.28125 9.183594 -16.28125 C 4.605469 -16.28125 0.914062 -12.558594 0.914062 -7.953125 C 0.914062 -3.40625 4.765625 0.347656 9.5625 0.347656 C 12.402344 0.347656 15.210938 -0.945312 16.566406 -2.964844 Z M 5.460938 -7.953125 C 5.460938 -10.191406 7.132812 -11.800781 9.183594 -11.800781 C 10.035156 -11.800781 10.761719 -11.519531 11.390625 -11.042969 L 5.585938 -6.910156 C 5.492188 -7.226562 5.460938 -7.574219 5.460938 -7.953125 Z M 5.460938 -7.953125 "/></g></g></g><g fill="#391c19" fill-opacity="1"><g transform="translate(110.079174, 93.705604)"><g><path d="M 10.699219 -16.21875 C 10.289062 -16.28125 9.972656 -16.28125 9.59375 -16.28125 C 8.363281 -16.28125 7.035156 -15.871094 6.058594 -14.832031 L 6.058594 -15.9375 L 1.578125 -15.9375 L 1.578125 0 L 6.058594 0 L 6.058594 -7.953125 C 6.058594 -10.507812 7.542969 -11.800781 9.277344 -11.800781 C 9.78125 -11.800781 10.253906 -11.738281 10.699219 -11.582031 Z M 10.699219 -16.21875 "/></g></g></g><g fill="#391c19" fill-opacity="1"><g transform="translate(121.186849, 93.705604)"><g><path d="M 10.917969 -11.800781 L 10.917969 -15.9375 L 7.132812 -15.9375 L 7.132812 -21.269531 L 2.652344 -18.019531 L 2.652344 -15.9375 L 0.253906 -15.9375 L 0.253906 -11.800781 L 2.652344 -11.800781 L 2.652344 -6.59375 C 2.652344 -2.460938 6.058594 0.347656 10.824219 0.347656 L 10.824219 -4.101562 C 8.773438 -4.101562 7.132812 -4.921875 7.132812 -6.722656 L 7.132812 -11.800781 Z M 10.917969 -11.800781 "/></g></g></g><g fill="#391c19" fill-opacity="1"><g transform="translate(132.578525, 93.705604)"><g><path d="M 12.179688 0.410156 C 18.429688 0.410156 22.246094 -3.628906 22.246094 -10.476562 L 22.246094 -23.507812 L 17.417969 -23.507812 L 17.417969 -10.066406 C 17.417969 -6.53125 15.839844 -4.292969 12.179688 -4.292969 C 8.710938 -4.292969 6.910156 -6.375 6.910156 -10.066406 L 6.910156 -23.507812 L 2.019531 -23.507812 L 2.019531 -10.886719 C 2.019531 -4.355469 5.300781 0.410156 12.179688 0.410156 Z M 12.179688 0.410156 "/></g></g></g><g fill="#391c19" fill-opacity="1"><g transform="translate(156.844996, 93.705604)"><g><path d="M 17.640625 -7.953125 C 17.640625 -12.558594 14.609375 -16.28125 10.253906 -16.28125 C 8.804688 -16.28125 6.941406 -15.839844 6.058594 -14.832031 L 6.058594 -15.9375 L 1.578125 -15.9375 L 1.578125 0 L 6.058594 0 L 6.058594 -7.953125 C 6.058594 -10.507812 7.890625 -11.800781 9.878906 -11.800781 C 11.707031 -11.800781 13.191406 -10.507812 13.191406 -7.953125 L 13.191406 0 L 17.640625 0 Z M 17.640625 -7.953125 "/></g></g></g><g clip-path="url(#0cb4c33450)"><g fill="#391c19" fill-opacity="1"><g transform="translate(20.262917, 111.894718)"><g><path d="M 5.664062 -2.867188 C 5.480469 -1.890625 4.664062 -1.183594 3.6875 -1.183594 C 2.597656 -1.183594 1.734375 -2.101562 1.734375 -3.242188 C 1.734375 -4.394531 2.597656 -5.316406 3.6875 -5.316406 C 4.359375 -5.316406 5.019531 -4.976562 5.492188 -4.28125 L 6.546875 -5.027344 C 5.960938 -5.980469 4.890625 -6.605469 3.679688 -6.605469 C 1.832031 -6.605469 0.347656 -5.097656 0.347656 -3.242188 C 0.347656 -1.386719 1.832031 0.113281 3.6875 0.113281 C 5.414062 0.113281 6.84375 -1.203125 7.035156 -2.867188 Z M 5.664062 -2.867188 "/></g></g></g></g><g clip-path="url(#b3ece4a9cf)"><g fill="#391c19" fill-opacity="1"><g transform="translate(28.687609, 111.894718)"><g><path d="M 3.714844 0.113281 C 5.570312 0.113281 7.070312 -1.394531 7.070312 -3.25 C 7.070312 -5.109375 5.570312 -6.605469 3.703125 -6.605469 C 1.847656 -6.605469 0.347656 -5.109375 0.347656 -3.25 C 0.347656 -1.394531 1.847656 0.113281 3.714844 0.113281 Z M 3.703125 -5.316406 C 4.800781 -5.316406 5.683594 -4.394531 5.683594 -3.25 C 5.683594 -2.089844 4.8125 -1.183594 3.714844 -1.183594 C 2.597656 -1.183594 1.734375 -2.089844 1.734375 -3.25 C 1.734375 -4.394531 2.597656 -5.316406 3.703125 -5.316406 Z M 3.703125 -5.316406 "/></g></g></g></g><g clip-path="url(#abcdd424fc)"><g fill="#391c19" fill-opacity="1"><g transform="translate(37.147145, 111.894718)"><g><path d="M 5.238281 -2.738281 L 0.617188 -6.617188 L 0.617188 0 L 1.96875 0 L 1.96875 -3.730469 L 6.589844 0.113281 L 6.589844 -6.492188 L 5.238281 -6.492188 Z M 5.238281 -2.738281 "/></g></g></g></g><g clip-path="url(#c777c35704)"><g fill="#391c19" fill-opacity="1"><g transform="translate(45.397599, 111.894718)"><g><path d="M 3.46875 -2.683594 L 1.5 -6.492188 L -0.0507812 -6.492188 L 3.417969 0.113281 L 6.71875 -6.492188 L 5.324219 -6.492188 Z M 3.46875 -2.683594 "/></g></g></g></g><g fill="#391c19" fill-opacity="1"><g transform="translate(53.107929, 111.894718)"><g><path d="M 4.644531 0 L 4.644531 -1.21875 L 1.96875 -1.21875 L 1.96875 -2.851562 L 4.410156 -2.851562 L 4.410156 -4.0625 L 1.96875 -4.0625 L 1.96875 -5.273438 L 4.070312 -5.273438 L 4.070312 -6.492188 L 0.617188 -6.492188 L 0.617188 0 Z M 4.644531 0 "/></g></g></g><g fill="#391c19" fill-opacity="1"><g transform="translate(59.145615, 111.894718)"><g><path d="M 2.648438 -1.125 L 3.714844 0 L 5.507812 0 L 4.105469 -1.5 C 5.011719 -1.917969 5.570312 -2.773438 5.570312 -3.941406 C 5.570312 -5.351562 4.402344 -6.492188 2.875 -6.492188 L 0.617188 -6.492188 L 0.617188 0 L 1.96875 0 L 1.96875 -1.125 Z M 1.96875 -2.34375 L 1.96875 -5.273438 L 2.789062 -5.273438 C 3.714844 -5.273438 4.183594 -4.628906 4.183594 -3.835938 C 4.183594 -2.867188 3.597656 -2.34375 2.527344 -2.34375 Z M 1.96875 -2.34375 "/></g></g></g><g clip-path="url(#51e2d6063a)"><g fill="#391c19" fill-opacity="1"><g transform="translate(66.071893, 111.894718)"><g><path d="M 2.179688 -2.875 C 2.804688 -2.804688 3.15625 -2.484375 3.15625 -1.960938 C 3.15625 -1.542969 2.804688 -1.183594 2.363281 -1.183594 C 1.976562 -1.183594 1.671875 -1.28125 1.378906 -1.65625 L 0.261719 -0.835938 C 0.878906 -0.15625 1.621094 0.113281 2.363281 0.113281 C 3.503906 0.113281 4.558594 -0.792969 4.558594 -2.058594 C 4.558594 -3.3125 3.644531 -4.0625 2.535156 -4.132812 C 1.847656 -4.175781 1.628906 -4.445312 1.628906 -4.742188 C 1.628906 -5.097656 1.875 -5.316406 2.230469 -5.316406 C 2.457031 -5.316406 2.746094 -5.175781 2.917969 -4.992188 L 3.984375 -5.769531 C 3.484375 -6.363281 2.875 -6.605469 2.230469 -6.605469 C 1.332031 -6.605469 0.324219 -5.832031 0.324219 -4.734375 C 0.324219 -3.714844 1.054688 -3.007812 2.179688 -2.875 Z M 2.179688 -2.875 "/></g></g></g></g><g clip-path="url(#c3ed5b6196)"><g fill="#391c19" fill-opacity="1"><g transform="translate(71.961482, 111.894718)"><g><path d="M 3.714844 0.113281 C 5.570312 0.113281 7.070312 -1.394531 7.070312 -3.25 C 7.070312 -5.109375 5.570312 -6.605469 3.703125 -6.605469 C 1.847656 -6.605469 0.347656 -5.109375 0.347656 -3.25 C 0.347656 -1.394531 1.847656 0.113281 3.714844 0.113281 Z M 3.703125 -5.316406 C 4.800781 -5.316406 5.683594 -4.394531 5.683594 -3.25 C 5.683594 -2.089844 4.8125 -1.183594 3.714844 -1.183594 C 2.597656 -1.183594 1.734375 -2.089844 1.734375 -3.25 C 1.734375 -4.394531 2.597656 -5.316406 3.703125 -5.316406 Z M 3.703125 -5.316406 "/></g></g></g></g><g fill="#391c19" fill-opacity="1"><g transform="translate(80.421021, 111.894718)"><g><path d="M 2.648438 -1.125 L 3.714844 0 L 5.507812 0 L 4.105469 -1.5 C 5.011719 -1.917969 5.570312 -2.773438 5.570312 -3.941406 C 5.570312 -5.351562 4.402344 -6.492188 2.875 -6.492188 L 0.617188 -6.492188 L 0.617188 0 L 1.96875 0 L 1.96875 -1.125 Z M 1.96875 -2.34375 L 1.96875 -5.273438 L 2.789062 -5.273438 C 3.714844 -5.273438 4.183594 -4.628906 4.183594 -3.835938 C 4.183594 -2.867188 3.597656 -2.34375 2.527344 -2.34375 Z M 1.96875 -2.34375 "/></g></g></g><g fill="#391c19" fill-opacity="1"><g transform="translate(87.3473, 111.894718)"><g/></g></g><g fill="#391c19" fill-opacity="1"><g transform="translate(92.060812, 111.894718)"><g><path d="M 0.617188 -6.492188 L 0.617188 0 L 3.257812 0 C 5.125 0 6.648438 -1.386719 6.648438 -3.25 C 6.648438 -5.097656 5.125 -6.492188 3.25 -6.492188 Z M 1.96875 -1.21875 L 1.96875 -5.273438 L 3.25 -5.273438 C 4.382812 -5.273438 5.265625 -4.425781 5.265625 -3.25 C 5.265625 -2.082031 4.382812 -1.21875 3.257812 -1.21875 Z M 1.96875 -1.21875 "/></g></g></g><g fill="#391c19" fill-opacity="1"><g transform="translate(100.102187, 111.894718)"><g><path d="M 4.644531 0 L 4.644531 -1.21875 L 1.96875 -1.21875 L 1.96875 -2.851562 L 4.410156 -2.851562 L 4.410156 -4.0625 L 1.96875 -4.0625 L 1.96875 -5.273438 L 4.070312 -5.273438 L 4.070312 -6.492188 L 0.617188 -6.492188 L 0.617188 0 Z M 4.644531 0 "/></g></g></g><g fill="#391c19" fill-opacity="1"><g transform="translate(106.139872, 111.894718)"><g/></g></g><g fill="#391c19" fill-opacity="1"><g transform="translate(110.853385, 111.894718)"><g><path d="M 4.078125 -3.984375 L 0.617188 -6.605469 L 0.617188 0 L 1.96875 0 L 1.96875 -3.914062 L 4.078125 -2.386719 L 6.1875 -3.914062 L 6.1875 0 L 7.53125 0 L 7.53125 -6.605469 Z M 4.078125 -3.984375 "/></g></g></g><g fill="#391c19" fill-opacity="1"><g transform="translate(120.053417, 111.894718)"><g><path d="M 4.644531 0 L 4.644531 -1.21875 L 1.96875 -1.21875 L 1.96875 -2.851562 L 4.410156 -2.851562 L 4.410156 -4.0625 L 1.96875 -4.0625 L 1.96875 -5.273438 L 4.070312 -5.273438 L 4.070312 -6.492188 L 0.617188 -6.492188 L 0.617188 0 Z M 4.644531 0 "/></g></g></g><g fill="#391c19" fill-opacity="1"><g transform="translate(126.091103, 111.894718)"><g><path d="M 0.617188 -6.492188 L 0.617188 0 L 3.257812 0 C 5.125 0 6.648438 -1.386719 6.648438 -3.25 C 6.648438 -5.097656 5.125 -6.492188 3.25 -6.492188 Z M 1.96875 -1.21875 L 1.96875 -5.273438 L 3.25 -5.273438 C 4.382812 -5.273438 5.265625 -4.425781 5.265625 -3.25 C 5.265625 -2.082031 4.382812 -1.21875 3.257812 -1.21875 Z M 1.96875 -1.21875 "/></g></g></g><g fill="#391c19" fill-opacity="1"><g transform="translate(134.132484, 111.894718)"><g><path d="M 1.96875 -6.492188 L 0.617188 -6.492188 L 0.617188 0 L 1.96875 0 Z M 1.96875 -6.492188 "/></g></g></g><g fill="#391c19" fill-opacity="1"><g transform="translate(137.765752, 111.894718)"><g><path d="M 0.617188 -6.492188 L 0.617188 0 L 3.257812 0 C 5.125 0 6.648438 -1.386719 6.648438 -3.25 C 6.648438 -5.097656 5.125 -6.492188 3.25 -6.492188 Z M 1.96875 -1.21875 L 1.96875 -5.273438 L 3.25 -5.273438 C 4.382812 -5.273438 5.265625 -4.425781 5.265625 -3.25 C 5.265625 -2.082031 4.382812 -1.21875 3.257812 -1.21875 Z M 1.96875 -1.21875 "/></g></g></g><g fill="#391c19" fill-opacity="1"><g transform="translate(145.807133, 111.894718)"><g><path d="M 5.335938 0 L 6.808594 0 L 3.371094 -6.605469 L -0.0507812 0 L 1.34375 0 L 1.761719 -0.871094 L 4.90625 -0.871094 Z M 3.320312 -4.113281 L 4.3125 -2.089844 L 2.34375 -2.089844 Z M 3.320312 -4.113281 "/></g></g></g><g clip-path="url(#ca1f0add03)"><g fill="#391c19" fill-opacity="1"><g transform="translate(153.604579, 111.894718)"><g><path d="M 2.179688 -2.875 C 2.804688 -2.804688 3.15625 -2.484375 3.15625 -1.960938 C 3.15625 -1.542969 2.804688 -1.183594 2.363281 -1.183594 C 1.976562 -1.183594 1.671875 -1.28125 1.378906 -1.65625 L 0.261719 -0.835938 C 0.878906 -0.15625 1.621094 0.113281 2.363281 0.113281 C 3.503906 0.113281 4.558594 -0.792969 4.558594 -2.058594 C 4.558594 -3.3125 3.644531 -4.0625 2.535156 -4.132812 C 1.847656 -4.175781 1.628906 -4.445312 1.628906 -4.742188 C 1.628906 -5.097656 1.875 -5.316406 2.230469 -5.316406 C 2.457031 -5.316406 2.746094 -5.175781 2.917969 -4.992188 L 3.984375 -5.769531 C 3.484375 -6.363281 2.875 -6.605469 2.230469 -6.605469 C 1.332031 -6.605469 0.324219 -5.832031 0.324219 -4.734375 C 0.324219 -3.714844 1.054688 -3.007812 2.179688 -2.875 Z M 2.179688 -2.875 "/></g></g></g></g></svg>