<svg xmlns="http://www.w3.org/2000/svg" xmlns:xlink="http://www.w3.org/1999/xlink" width="250" zoomAndPan="magnify" viewBox="0 0 187.5 50.249999" height="67" preserveAspectRatio="xMidYMid meet" version="1.0"><defs><g/><clipPath id="5172db3c5f"><path d="M 1.132812 0.00390625 L 23.359375 0.00390625 L 23.359375 22.226562 L 1.132812 22.226562 Z M 1.132812 0.00390625 " clip-rule="nonzero"/></clipPath><clipPath id="4d1065bb6c"><path d="M 4.140625 0.00390625 L 20.355469 0.00390625 C 22.015625 0.00390625 23.359375 1.347656 23.359375 3.003906 L 23.359375 19.222656 C 23.359375 20.882812 22.015625 22.226562 20.355469 22.226562 L 4.140625 22.226562 C 2.476562 22.226562 1.132812 20.882812 1.132812 19.222656 L 1.132812 3.003906 C 1.132812 1.347656 2.476562 0.00390625 4.140625 0.00390625 " clip-rule="nonzero"/></clipPath><clipPath id="461197c26b"><path d="M 28.863281 0 L 51 0 L 51 22 L 28.863281 22 Z M 28.863281 0 " clip-rule="nonzero"/></clipPath><clipPath id="d334593cc7"><path d="M 31.828125 0 L 47.8125 0 C 49.449219 0 50.777344 1.328125 50.777344 2.964844 L 50.777344 18.976562 C 50.777344 20.613281 49.449219 21.941406 47.8125 21.941406 L 31.828125 21.941406 C 30.191406 21.941406 28.863281 20.613281 28.863281 18.976562 L 28.863281 2.964844 C 28.863281 1.328125 30.191406 0 31.828125 0 " clip-rule="nonzero"/></clipPath><clipPath id="271e7f028b"><path d="M 30.414062 5 L 48.9375 5 L 48.9375 17 L 30.414062 17 Z M 30.414062 5 " clip-rule="nonzero"/></clipPath><clipPath id="4179507b21"><path d="M 1.132812 27.703125 L 23 27.703125 L 23 49.511719 L 1.132812 49.511719 Z M 1.132812 27.703125 " clip-rule="nonzero"/></clipPath><clipPath id="b722b716df"><path d="M 4.097656 27.703125 L 20.082031 27.703125 C 21.71875 27.703125 23.042969 29.027344 23.042969 30.664062 L 23.042969 46.679688 C 23.042969 48.316406 21.71875 49.644531 20.082031 49.644531 L 4.097656 49.644531 C 2.460938 49.644531 1.132812 48.316406 1.132812 46.679688 L 1.132812 30.664062 C 1.132812 29.027344 2.460938 27.703125 4.097656 27.703125 " clip-rule="nonzero"/></clipPath><clipPath id="603058455e"><path d="M 7 29.390625 L 17 29.390625 L 17 47.914062 L 7 47.914062 Z M 7 29.390625 " clip-rule="nonzero"/></clipPath><clipPath id="e5a98bf8d2"><path d="M 28.863281 27.703125 L 51.089844 27.703125 L 51.089844 49.511719 L 28.863281 49.511719 Z M 28.863281 27.703125 " clip-rule="nonzero"/></clipPath><clipPath id="26664c92bc"><path d="M 31.871094 27.703125 L 48.085938 27.703125 C 49.746094 27.703125 51.089844 29.046875 51.089844 30.707031 L 51.089844 46.925781 C 51.089844 48.582031 49.746094 49.925781 48.085938 49.925781 L 31.871094 49.925781 C 30.210938 49.925781 28.863281 48.582031 28.863281 46.925781 L 28.863281 30.707031 C 28.863281 29.046875 30.210938 27.703125 31.871094 27.703125 " clip-rule="nonzero"/></clipPath><clipPath id="b4d9f06449"><path d="M 30.183594 29.390625 L 49.449219 29.390625 L 49.449219 47.914062 L 30.183594 47.914062 Z M 30.183594 29.390625 " clip-rule="nonzero"/></clipPath><clipPath id="74f0d0e2f9"><path d="M 56.703125 33.207031 L 185.875 33.207031 L 185.875 44.839844 L 56.703125 44.839844 Z M 56.703125 33.207031 " clip-rule="nonzero"/></clipPath><clipPath id="4249ebf109"><path d="M 62.441406 33.207031 L 180.695312 33.207031 C 183.863281 33.207031 186.433594 35.773438 186.433594 38.941406 C 186.433594 42.109375 183.863281 44.679688 180.695312 44.679688 L 62.441406 44.679688 C 59.269531 44.679688 56.703125 42.109375 56.703125 38.941406 C 56.703125 35.773438 59.269531 33.207031 62.441406 33.207031 " clip-rule="nonzero"/></clipPath></defs><g clip-path="url(#5172db3c5f)"><g clip-path="url(#4d1065bb6c)"><path stroke-linecap="butt" transform="matrix(0.751906, 0, 0, 0.750716, 1.132356, 0.00295001)" fill="none" stroke-linejoin="miter" d="M 4.000857 0.00127378 L 25.565834 0.00127378 C 27.773764 0.00127378 29.560888 1.791231 29.560888 3.997458 L 29.560888 25.601829 C 29.560888 27.813259 27.773764 29.603216 25.565834 29.603216 L 4.000857 29.603216 C 1.787732 29.603216 0.00060776 27.813259 0.00060776 25.601829 L 0.00060776 3.997458 C 0.00060776 1.791231 1.787732 0.00127378 4.000857 0.00127378 " stroke="#2c306f" stroke-width="2" stroke-opacity="1" stroke-miterlimit="4"/></g></g><g clip-path="url(#461197c26b)"><g clip-path="url(#d334593cc7)"><path fill="#2c306f" d="M 28.863281 0 L 50.457031 0 L 50.457031 22.246094 L 28.863281 22.246094 Z M 28.863281 0 " fill-opacity="1" fill-rule="nonzero"/></g></g><g clip-path="url(#271e7f028b)"><path fill="#c2f0e6" d="M 48.359375 10.359375 L 47.78125 10.359375 L 47.78125 8.042969 C 47.78125 7.890625 47.75 7.742188 47.691406 7.601562 C 47.632812 7.457031 47.550781 7.332031 47.441406 7.226562 C 47.332031 7.117188 47.207031 7.03125 47.066406 6.972656 C 46.921875 6.914062 46.777344 6.886719 46.621094 6.886719 L 45.464844 6.886719 L 45.464844 6.308594 C 45.464844 6.152344 45.433594 6.003906 45.375 5.863281 C 45.316406 5.722656 45.234375 5.597656 45.125 5.488281 C 45.015625 5.378906 44.890625 5.296875 44.75 5.238281 C 44.609375 5.179688 44.460938 5.148438 44.308594 5.148438 L 42.570312 5.148438 C 42.417969 5.148438 42.269531 5.179688 42.128906 5.238281 C 41.984375 5.296875 41.859375 5.378906 41.75 5.488281 C 41.644531 5.597656 41.558594 5.722656 41.5 5.863281 C 41.441406 6.003906 41.414062 6.152344 41.414062 6.308594 L 41.414062 10.359375 L 37.941406 10.359375 L 37.941406 6.308594 C 37.941406 6.152344 37.910156 6.003906 37.851562 5.863281 C 37.792969 5.722656 37.707031 5.597656 37.601562 5.488281 C 37.492188 5.378906 37.367188 5.296875 37.226562 5.238281 C 37.082031 5.179688 36.933594 5.148438 36.78125 5.148438 L 35.046875 5.148438 C 34.890625 5.148438 34.742188 5.179688 34.601562 5.238281 C 34.460938 5.296875 34.335938 5.378906 34.226562 5.488281 C 34.117188 5.597656 34.035156 5.722656 33.976562 5.863281 C 33.917969 6.003906 33.886719 6.152344 33.886719 6.308594 L 33.886719 6.886719 L 32.730469 6.886719 C 32.578125 6.886719 32.429688 6.914062 32.285156 6.972656 C 32.144531 7.03125 32.019531 7.117188 31.910156 7.226562 C 31.800781 7.332031 31.71875 7.457031 31.660156 7.601562 C 31.601562 7.742188 31.570312 7.890625 31.570312 8.042969 L 31.570312 10.359375 L 30.992188 10.359375 C 30.832031 10.359375 30.695312 10.414062 30.582031 10.527344 C 30.472656 10.640625 30.414062 10.777344 30.414062 10.9375 C 30.414062 11.097656 30.472656 11.234375 30.582031 11.347656 C 30.695312 11.460938 30.832031 11.515625 30.992188 11.515625 L 31.570312 11.515625 L 31.570312 13.832031 C 31.570312 13.984375 31.601562 14.132812 31.660156 14.273438 C 31.71875 14.417969 31.800781 14.542969 31.910156 14.652344 C 32.019531 14.757812 32.144531 14.84375 32.285156 14.902344 C 32.429688 14.960938 32.578125 14.988281 32.730469 14.988281 L 33.886719 14.988281 L 33.886719 15.570312 C 33.886719 15.722656 33.917969 15.871094 33.976562 16.011719 C 34.035156 16.152344 34.117188 16.277344 34.226562 16.386719 C 34.335938 16.496094 34.460938 16.578125 34.601562 16.636719 C 34.742188 16.695312 34.890625 16.726562 35.046875 16.726562 L 36.78125 16.726562 C 36.933594 16.726562 37.082031 16.695312 37.226562 16.636719 C 37.367188 16.578125 37.492188 16.496094 37.601562 16.386719 C 37.707031 16.277344 37.792969 16.152344 37.851562 16.011719 C 37.910156 15.871094 37.941406 15.722656 37.941406 15.570312 L 37.941406 11.515625 L 41.414062 11.515625 L 41.414062 15.570312 C 41.414062 15.722656 41.441406 15.871094 41.5 16.011719 C 41.558594 16.152344 41.644531 16.277344 41.75 16.386719 C 41.859375 16.496094 41.984375 16.578125 42.128906 16.636719 C 42.269531 16.695312 42.417969 16.726562 42.570312 16.726562 L 44.308594 16.726562 C 44.460938 16.726562 44.609375 16.695312 44.75 16.636719 C 44.890625 16.578125 45.015625 16.496094 45.125 16.386719 C 45.234375 16.277344 45.316406 16.152344 45.375 16.011719 C 45.433594 15.871094 45.464844 15.722656 45.464844 15.570312 L 45.464844 14.988281 L 46.621094 14.988281 C 46.777344 14.988281 46.921875 14.960938 47.066406 14.902344 C 47.207031 14.84375 47.332031 14.757812 47.441406 14.652344 C 47.550781 14.542969 47.632812 14.417969 47.691406 14.273438 C 47.75 14.132812 47.78125 13.984375 47.78125 13.832031 L 47.78125 11.515625 L 48.359375 11.515625 C 48.519531 11.515625 48.65625 11.460938 48.769531 11.347656 C 48.882812 11.234375 48.9375 11.097656 48.9375 10.9375 C 48.9375 10.777344 48.882812 10.640625 48.769531 10.527344 C 48.65625 10.414062 48.519531 10.359375 48.359375 10.359375 Z M 32.730469 13.832031 L 32.730469 8.042969 L 33.886719 8.042969 L 33.886719 13.832031 Z M 36.78125 15.570312 L 35.046875 15.570312 L 35.046875 6.308594 L 36.78125 6.308594 Z M 44.308594 15.570312 L 42.570312 15.570312 L 42.570312 6.308594 L 44.308594 6.308594 L 44.308594 14.398438 C 44.308594 14.402344 44.308594 14.40625 44.308594 14.410156 C 44.308594 14.414062 44.308594 14.417969 44.308594 14.425781 Z M 46.621094 13.832031 L 45.464844 13.832031 L 45.464844 8.042969 L 46.621094 8.042969 Z M 46.621094 13.832031 " fill-opacity="1" fill-rule="nonzero"/></g><g clip-path="url(#4179507b21)"><g clip-path="url(#b722b716df)"><path fill="#2c306f" d="M 1.132812 27.703125 L 22.726562 27.703125 L 22.726562 49.949219 L 1.132812 49.949219 Z M 1.132812 27.703125 " fill-opacity="1" fill-rule="nonzero"/></g></g><g clip-path="url(#603058455e)"><path fill="#c2f0e6" d="M 12.484375 40.460938 L 12.484375 35.757812 C 12.484375 35.597656 12.429688 35.460938 12.316406 35.347656 C 12.203125 35.234375 12.066406 35.179688 11.90625 35.179688 C 11.746094 35.179688 11.609375 35.234375 11.496094 35.347656 C 11.382812 35.460938 11.328125 35.597656 11.328125 35.757812 L 11.328125 40.460938 C 11.144531 40.507812 10.972656 40.574219 10.808594 40.664062 C 10.644531 40.75 10.492188 40.859375 10.355469 40.984375 C 10.214844 41.109375 10.09375 41.246094 9.988281 41.402344 C 9.882812 41.558594 9.800781 41.722656 9.734375 41.898438 C 9.671875 42.070312 9.625 42.253906 9.605469 42.4375 C 9.585938 42.621094 9.585938 42.808594 9.609375 42.992188 C 9.632812 43.179688 9.675781 43.359375 9.746094 43.53125 C 9.8125 43.707031 9.898438 43.871094 10.003906 44.023438 C 10.113281 44.175781 10.234375 44.316406 10.375 44.4375 C 10.515625 44.5625 10.667969 44.667969 10.832031 44.753906 C 11 44.839844 11.171875 44.90625 11.355469 44.949219 C 11.535156 44.996094 11.71875 45.015625 11.90625 45.015625 C 12.09375 45.015625 12.277344 44.996094 12.457031 44.949219 C 12.640625 44.90625 12.8125 44.839844 12.976562 44.753906 C 13.144531 44.667969 13.296875 44.5625 13.4375 44.4375 C 13.578125 44.316406 13.699219 44.175781 13.804688 44.023438 C 13.914062 43.871094 14 43.707031 14.066406 43.53125 C 14.132812 43.359375 14.179688 43.179688 14.203125 42.992188 C 14.226562 42.808594 14.226562 42.621094 14.207031 42.4375 C 14.183594 42.253906 14.140625 42.070312 14.078125 41.898438 C 14.011719 41.722656 13.925781 41.558594 13.820312 41.402344 C 13.71875 41.246094 13.597656 41.109375 13.457031 40.984375 C 13.320312 40.859375 13.167969 40.75 13.003906 40.664062 C 12.839844 40.574219 12.664062 40.507812 12.484375 40.460938 Z M 11.90625 43.859375 C 11.753906 43.859375 11.605469 43.832031 11.460938 43.773438 C 11.320312 43.714844 11.195312 43.628906 11.085938 43.523438 C 10.980469 43.414062 10.894531 43.289062 10.835938 43.144531 C 10.777344 43.003906 10.75 42.855469 10.75 42.703125 C 10.75 42.550781 10.777344 42.402344 10.835938 42.261719 C 10.894531 42.117188 10.980469 41.992188 11.085938 41.882812 C 11.195312 41.777344 11.320312 41.691406 11.460938 41.632812 C 11.605469 41.574219 11.753906 41.546875 11.90625 41.546875 C 12.058594 41.546875 12.207031 41.574219 12.347656 41.632812 C 12.492188 41.691406 12.617188 41.777344 12.722656 41.882812 C 12.832031 41.992188 12.917969 42.117188 12.976562 42.261719 C 13.035156 42.402344 13.0625 42.550781 13.0625 42.703125 C 13.0625 42.855469 13.035156 43.003906 12.976562 43.144531 C 12.917969 43.289062 12.832031 43.414062 12.722656 43.523438 C 12.617188 43.628906 12.492188 43.714844 12.347656 43.773438 C 12.207031 43.832031 12.058594 43.859375 11.90625 43.859375 Z M 14.800781 39.085938 L 14.800781 32.863281 C 14.800781 32.480469 14.726562 32.109375 14.578125 31.753906 C 14.433594 31.398438 14.222656 31.085938 13.953125 30.816406 C 13.679688 30.542969 13.367188 30.335938 13.011719 30.1875 C 12.660156 30.042969 12.289062 29.96875 11.90625 29.96875 C 11.523438 29.96875 11.152344 30.042969 10.796875 30.1875 C 10.445312 30.335938 10.128906 30.542969 9.859375 30.816406 C 9.585938 31.085938 9.378906 31.398438 9.230469 31.753906 C 9.085938 32.109375 9.011719 32.480469 9.011719 32.863281 L 9.011719 39.085938 C 8.761719 39.285156 8.539062 39.507812 8.335938 39.75 C 8.132812 39.996094 7.957031 40.261719 7.808594 40.542969 C 7.660156 40.824219 7.542969 41.117188 7.453125 41.425781 C 7.367188 41.730469 7.3125 42.042969 7.289062 42.359375 C 7.265625 42.675781 7.273438 42.992188 7.316406 43.308594 C 7.355469 43.625 7.429688 43.933594 7.535156 44.234375 C 7.640625 44.535156 7.777344 44.820312 7.941406 45.09375 C 8.105469 45.367188 8.296875 45.617188 8.511719 45.851562 C 8.730469 46.085938 8.96875 46.292969 9.226562 46.476562 C 9.488281 46.664062 9.761719 46.816406 10.054688 46.945312 C 10.347656 47.074219 10.648438 47.167969 10.960938 47.234375 C 11.273438 47.296875 11.585938 47.332031 11.90625 47.332031 C 12.222656 47.332031 12.539062 47.296875 12.851562 47.234375 C 13.164062 47.167969 13.464844 47.074219 13.757812 46.945312 C 14.046875 46.816406 14.324219 46.664062 14.582031 46.476562 C 14.84375 46.292969 15.082031 46.085938 15.296875 45.851562 C 15.515625 45.617188 15.707031 45.367188 15.871094 45.09375 C 16.035156 44.820312 16.171875 44.535156 16.273438 44.234375 C 16.378906 43.933594 16.453125 43.625 16.496094 43.308594 C 16.539062 42.992188 16.546875 42.675781 16.523438 42.359375 C 16.5 42.042969 16.445312 41.730469 16.359375 41.425781 C 16.269531 41.117188 16.152344 40.824219 16.003906 40.542969 C 15.855469 40.261719 15.679688 39.996094 15.476562 39.75 C 15.273438 39.507812 15.046875 39.285156 14.800781 39.085938 Z M 11.90625 46.175781 C 11.535156 46.175781 11.175781 46.117188 10.824219 46.003906 C 10.472656 45.886719 10.148438 45.722656 9.851562 45.503906 C 9.550781 45.285156 9.296875 45.023438 9.082031 44.722656 C 8.863281 44.421875 8.703125 44.09375 8.589844 43.742188 C 8.480469 43.390625 8.429688 43.027344 8.433594 42.660156 C 8.4375 42.289062 8.5 41.929688 8.621094 41.578125 C 8.738281 41.230469 8.910156 40.90625 9.132812 40.613281 C 9.355469 40.316406 9.617188 40.0625 9.921875 39.851562 C 10.085938 39.734375 10.171875 39.578125 10.167969 39.375 L 10.167969 32.863281 C 10.167969 32.632812 10.214844 32.410156 10.300781 32.199219 C 10.390625 31.984375 10.515625 31.796875 10.679688 31.632812 C 10.839844 31.472656 11.027344 31.347656 11.242188 31.257812 C 11.453125 31.167969 11.675781 31.125 11.90625 31.125 C 12.136719 31.125 12.359375 31.167969 12.570312 31.257812 C 12.78125 31.347656 12.972656 31.472656 13.132812 31.632812 C 13.296875 31.796875 13.421875 31.984375 13.511719 32.199219 C 13.597656 32.410156 13.640625 32.632812 13.640625 32.863281 L 13.640625 39.375 C 13.640625 39.574219 13.726562 39.734375 13.890625 39.847656 C 14.195312 40.058594 14.457031 40.3125 14.679688 40.609375 C 14.902344 40.902344 15.074219 41.226562 15.195312 41.578125 C 15.316406 41.925781 15.378906 42.285156 15.382812 42.65625 C 15.386719 43.027344 15.335938 43.390625 15.222656 43.742188 C 15.113281 44.09375 14.949219 44.421875 14.734375 44.722656 C 14.519531 45.023438 14.261719 45.285156 13.964844 45.503906 C 13.664062 45.722656 13.339844 45.890625 12.988281 46.003906 C 12.636719 46.121094 12.277344 46.175781 11.90625 46.175781 Z M 11.90625 46.175781 " fill-opacity="1" fill-rule="nonzero"/></g><path fill="#ffd048" d="M 19.582031 6.984375 L 15.769531 3.171875 C 15.660156 3.0625 15.535156 2.980469 15.394531 2.921875 C 15.25 2.863281 15.105469 2.832031 14.949219 2.832031 C 14.796875 2.832031 14.648438 2.863281 14.507812 2.921875 C 14.367188 2.980469 14.238281 3.0625 14.132812 3.171875 L 4.050781 13.253906 C 3.941406 13.363281 3.859375 13.488281 3.800781 13.628906 C 3.742188 13.769531 3.710938 13.917969 3.710938 14.070312 C 3.710938 14.226562 3.742188 14.375 3.800781 14.515625 C 3.859375 14.65625 3.941406 14.78125 4.050781 14.890625 L 7.863281 18.703125 C 7.972656 18.8125 8.097656 18.894531 8.238281 18.953125 C 8.378906 19.011719 8.527344 19.042969 8.683594 19.042969 C 8.835938 19.042969 8.984375 19.011719 9.125 18.953125 C 9.265625 18.894531 9.390625 18.8125 9.5 18.703125 L 19.582031 8.621094 C 19.691406 8.515625 19.773438 8.386719 19.832031 8.246094 C 19.890625 8.105469 19.921875 7.957031 19.921875 7.804688 C 19.921875 7.648438 19.890625 7.503906 19.832031 7.359375 C 19.773438 7.21875 19.691406 7.09375 19.582031 6.984375 Z M 8.683594 17.882812 L 4.871094 14.070312 L 7.183594 11.757812 L 9.089844 13.664062 C 9.203125 13.777344 9.339844 13.832031 9.5 13.832031 C 9.660156 13.832031 9.796875 13.777344 9.910156 13.664062 C 10.023438 13.550781 10.078125 13.414062 10.078125 13.253906 C 10.078125 13.09375 10.023438 12.957031 9.910156 12.84375 L 8.003906 10.9375 L 9.5 9.441406 L 11.40625 11.347656 C 11.519531 11.460938 11.65625 11.515625 11.816406 11.515625 C 11.976562 11.515625 12.113281 11.460938 12.226562 11.347656 C 12.339844 11.234375 12.394531 11.097656 12.394531 10.9375 C 12.394531 10.777344 12.339844 10.640625 12.226562 10.527344 L 10.320312 8.621094 L 11.816406 7.125 L 13.722656 9.03125 C 13.835938 9.144531 13.972656 9.203125 14.132812 9.203125 C 14.292969 9.203125 14.429688 9.144531 14.542969 9.03125 C 14.652344 8.917969 14.710938 8.78125 14.710938 8.621094 C 14.710938 8.460938 14.652344 8.324219 14.542969 8.210938 L 12.632812 6.308594 L 14.949219 3.992188 L 18.761719 7.804688 Z M 8.683594 17.882812 " fill-opacity="1" fill-rule="nonzero"/><g clip-path="url(#e5a98bf8d2)"><g clip-path="url(#26664c92bc)"><path stroke-linecap="butt" transform="matrix(0.751906, 0, 0, 0.750716, 28.863033, 27.704711)" fill="none" stroke-linejoin="miter" d="M 4.000579 -0.00211241 L 25.565556 -0.00211241 C 27.773486 -0.00211241 29.56061 1.787845 29.56061 3.999275 L 29.56061 25.603646 C 29.56061 27.809873 27.773486 29.59983 25.565556 29.59983 L 4.000579 29.59983 C 1.792649 29.59983 0.00032993 27.809873 0.00032993 25.603646 L 0.00032993 3.999275 C 0.00032993 1.787845 1.792649 -0.00211241 4.000579 -0.00211241 " stroke="#2c306f" stroke-width="2" stroke-opacity="1" stroke-miterlimit="4"/></g></g><g clip-path="url(#b4d9f06449)"><path fill="#ffd048" d="M 51.207031 25.757812 L 28.445312 25.757812 C 28.230469 25.757812 28.023438 25.796875 27.824219 25.878906 C 27.625 25.960938 27.449219 26.082031 27.296875 26.234375 C 27.144531 26.386719 27.027344 26.5625 26.941406 26.761719 C 26.859375 26.960938 26.820312 27.167969 26.820312 27.382812 L 26.820312 50.144531 C 26.820312 50.359375 26.859375 50.570312 26.941406 50.769531 C 27.027344 50.96875 27.144531 51.144531 27.296875 51.296875 C 27.449219 51.449219 27.625 51.566406 27.824219 51.648438 C 28.023438 51.730469 28.230469 51.773438 28.445312 51.773438 L 51.207031 51.773438 C 51.425781 51.773438 51.632812 51.730469 51.832031 51.648438 C 52.03125 51.566406 52.207031 51.449219 52.359375 51.296875 C 52.511719 51.144531 52.628906 50.96875 52.710938 50.769531 C 52.792969 50.570312 52.835938 50.359375 52.835938 50.144531 L 52.835938 27.382812 C 52.835938 27.167969 52.792969 26.960938 52.710938 26.761719 C 52.628906 26.5625 52.511719 26.386719 52.359375 26.234375 C 52.207031 26.082031 52.03125 25.960938 51.832031 25.878906 C 51.632812 25.796875 51.425781 25.757812 51.207031 25.757812 Z M 49.582031 48.519531 L 30.070312 48.519531 L 30.070312 29.007812 L 49.582031 29.007812 Z M 49.582031 48.519531 " fill-opacity="1" fill-rule="nonzero"/></g><path fill="#ffd048" d="M 35.761719 43.640625 L 43.890625 43.640625 C 44.109375 43.640625 44.316406 43.601562 44.515625 43.519531 C 44.714844 43.433594 44.890625 43.316406 45.042969 43.164062 C 45.195312 43.011719 45.3125 42.835938 45.394531 42.636719 C 45.476562 42.4375 45.519531 42.230469 45.519531 42.015625 C 45.519531 41.800781 45.476562 41.59375 45.394531 41.394531 C 45.3125 41.195312 45.195312 41.019531 45.042969 40.867188 C 44.890625 40.714844 44.714844 40.597656 44.515625 40.511719 C 44.316406 40.429688 44.109375 40.390625 43.890625 40.390625 L 35.761719 40.390625 C 35.546875 40.390625 35.339844 40.429688 35.140625 40.515625 C 34.941406 40.597656 34.765625 40.714844 34.613281 40.867188 C 34.460938 41.019531 34.34375 41.195312 34.261719 41.394531 C 34.175781 41.59375 34.136719 41.800781 34.136719 42.015625 C 34.136719 42.230469 34.175781 42.4375 34.261719 42.636719 C 34.34375 42.835938 34.460938 43.011719 34.613281 43.164062 C 34.765625 43.316406 34.941406 43.433594 35.140625 43.519531 C 35.339844 43.601562 35.546875 43.640625 35.761719 43.640625 Z M 35.761719 43.640625 " fill-opacity="1" fill-rule="nonzero"/><path fill="#ffd048" d="M 35.761719 37.136719 L 43.890625 37.136719 C 44.109375 37.136719 44.316406 37.097656 44.515625 37.015625 C 44.714844 36.933594 44.890625 36.8125 45.042969 36.660156 C 45.195312 36.507812 45.3125 36.332031 45.394531 36.132812 C 45.476562 35.933594 45.519531 35.726562 45.519531 35.511719 C 45.519531 35.296875 45.476562 35.089844 45.394531 34.890625 C 45.3125 34.691406 45.195312 34.515625 45.042969 34.363281 C 44.890625 34.210938 44.714844 34.09375 44.515625 34.011719 C 44.316406 33.925781 44.109375 33.886719 43.890625 33.886719 L 35.761719 33.886719 C 35.546875 33.886719 35.339844 33.925781 35.140625 34.011719 C 34.941406 34.09375 34.765625 34.210938 34.613281 34.363281 C 34.460938 34.515625 34.34375 34.691406 34.261719 34.890625 C 34.175781 35.089844 34.136719 35.296875 34.136719 35.511719 C 34.136719 35.726562 34.175781 35.933594 34.261719 36.132812 C 34.34375 36.332031 34.460938 36.507812 34.613281 36.660156 C 34.765625 36.8125 34.941406 36.933594 35.140625 37.015625 C 35.339844 37.097656 35.546875 37.136719 35.761719 37.136719 Z M 35.761719 37.136719 " fill-opacity="1" fill-rule="nonzero"/><g fill="#2c306f" fill-opacity="1"><g transform="translate(57.31647, 25.936383)"><g><path d="M 16.058594 -8.128906 C 15.539062 -5.359375 13.214844 -3.359375 10.449219 -3.359375 C 7.363281 -3.359375 4.914062 -5.953125 4.914062 -9.1875 C 4.914062 -12.449219 7.363281 -15.070312 10.449219 -15.070312 C 12.351562 -15.070312 14.230469 -14.105469 15.5625 -12.128906 L 18.550781 -14.253906 C 16.898438 -16.945312 13.859375 -18.722656 10.425781 -18.722656 C 5.1875 -18.722656 0.988281 -14.449219 0.988281 -9.1875 C 0.988281 -3.925781 5.1875 0.320312 10.449219 0.320312 C 15.339844 0.320312 19.390625 -3.410156 19.933594 -8.128906 Z M 16.058594 -8.128906 "/></g></g></g><g fill="#2c306f" fill-opacity="1"><g transform="translate(78.234943, 25.936383)"><g><path d="M 7.1875 -12.746094 C 3.605469 -12.746094 0.714844 -9.832031 0.714844 -6.226562 C 0.714844 -2.667969 3.605469 0.273438 7.1875 0.273438 C 10.769531 0.273438 13.757812 -2.667969 13.757812 -6.226562 C 13.757812 -9.832031 10.769531 -12.746094 7.1875 -12.746094 Z M 7.1875 -3.210938 C 5.582031 -3.210938 4.273438 -4.445312 4.273438 -6.226562 C 4.273438 -7.980469 5.582031 -9.238281 7.1875 -9.238281 C 8.894531 -9.238281 10.175781 -7.980469 10.175781 -6.226562 C 10.175781 -4.445312 8.894531 -3.210938 7.1875 -3.210938 Z M 7.1875 -3.210938 "/></g></g></g><g fill="#2c306f" fill-opacity="1"><g transform="translate(92.70746, 25.936383)"><g><path d="M 13.808594 -6.226562 C 13.808594 -9.832031 11.4375 -12.746094 8.027344 -12.746094 C 6.890625 -12.746094 5.433594 -12.402344 4.742188 -11.609375 L 4.742188 -12.476562 L 1.234375 -12.476562 L 1.234375 0 L 4.742188 0 L 4.742188 -6.226562 C 4.742188 -8.226562 6.175781 -9.238281 7.730469 -9.238281 C 9.164062 -9.238281 10.324219 -8.226562 10.324219 -6.226562 L 10.324219 0 L 13.808594 0 Z M 13.808594 -6.226562 "/></g></g></g><g fill="#2c306f" fill-opacity="1"><g transform="translate(107.575133, 25.936383)"><g><path d="M 6.71875 -6.472656 L 3.730469 -12.476562 L -0.148438 -12.476562 L 6.59375 0.320312 L 12.796875 -12.476562 L 9.386719 -12.476562 Z M 6.71875 -6.472656 "/></g></g></g><g fill="#2c306f" fill-opacity="1"><g transform="translate(120.220066, 25.936383)"><g><path d="M 10.175781 -4.472656 C 9.609375 -3.582031 8.546875 -3.210938 7.484375 -3.210938 C 7.113281 -3.210938 6.769531 -3.234375 6.449219 -3.359375 L 13.414062 -8.347656 C 12.648438 -10.671875 10.277344 -12.746094 7.1875 -12.746094 C 3.605469 -12.746094 0.714844 -9.832031 0.714844 -6.226562 C 0.714844 -2.667969 3.730469 0.273438 7.484375 0.273438 C 9.707031 0.273438 11.90625 -0.742188 12.96875 -2.320312 Z M 4.273438 -6.226562 C 4.273438 -7.980469 5.582031 -9.238281 7.1875 -9.238281 C 7.855469 -9.238281 8.421875 -9.015625 8.917969 -8.644531 L 4.371094 -5.410156 C 4.296875 -5.65625 4.273438 -5.929688 4.273438 -6.226562 Z M 4.273438 -6.226562 "/></g></g></g><g fill="#2c306f" fill-opacity="1"><g transform="translate(134.346826, 25.936383)"><g><path d="M 8.375 -12.695312 C 8.054688 -12.746094 7.804688 -12.746094 7.507812 -12.746094 C 6.546875 -12.746094 5.507812 -12.425781 4.742188 -11.609375 L 4.742188 -12.476562 L 1.234375 -12.476562 L 1.234375 0 L 4.742188 0 L 4.742188 -6.226562 C 4.742188 -8.226562 5.902344 -9.238281 7.261719 -9.238281 C 7.65625 -9.238281 8.027344 -9.1875 8.375 -9.066406 Z M 8.375 -12.695312 "/></g></g></g><g fill="#2c306f" fill-opacity="1"><g transform="translate(143.040221, 25.936383)"><g><path d="M 8.546875 -9.238281 L 8.546875 -12.476562 L 5.582031 -12.476562 L 5.582031 -16.648438 L 2.074219 -14.105469 L 2.074219 -12.476562 L 0.199219 -12.476562 L 0.199219 -9.238281 L 2.074219 -9.238281 L 2.074219 -5.164062 C 2.074219 -1.925781 4.742188 0.273438 8.472656 0.273438 L 8.472656 -3.210938 C 6.867188 -3.210938 5.582031 -3.855469 5.582031 -5.261719 L 5.582031 -9.238281 Z M 8.546875 -9.238281 "/></g></g></g><g fill="#ffd048" fill-opacity="1"><g transform="translate(151.94739, 25.936383)"><g><path d="M 9.535156 0.320312 C 14.425781 0.320312 17.414062 -2.839844 17.414062 -8.203125 L 17.414062 -18.402344 L 13.636719 -18.402344 L 13.636719 -7.878906 C 13.636719 -5.113281 12.402344 -3.359375 9.535156 -3.359375 C 6.816406 -3.359375 5.410156 -4.988281 5.410156 -7.878906 L 5.410156 -18.402344 L 1.582031 -18.402344 L 1.582031 -8.523438 C 1.582031 -3.410156 4.148438 0.320312 9.535156 0.320312 Z M 9.535156 0.320312 "/></g></g></g><g fill="#ffd048" fill-opacity="1"><g transform="translate(170.939488, 25.936383)"><g><path d="M 13.808594 -6.226562 C 13.808594 -9.832031 11.4375 -12.746094 8.027344 -12.746094 C 6.890625 -12.746094 5.433594 -12.402344 4.742188 -11.609375 L 4.742188 -12.476562 L 1.234375 -12.476562 L 1.234375 0 L 4.742188 0 L 4.742188 -6.226562 C 4.742188 -8.226562 6.175781 -9.238281 7.730469 -9.238281 C 9.164062 -9.238281 10.324219 -8.226562 10.324219 -6.226562 L 10.324219 0 L 13.808594 0 Z M 13.808594 -6.226562 "/></g></g></g><g clip-path="url(#74f0d0e2f9)"><g clip-path="url(#4249ebf109)"><path fill="#c2f0e6" d="M 56.703125 33.207031 L 186.316406 33.207031 L 186.316406 44.609375 L 56.703125 44.609375 Z M 56.703125 33.207031 " fill-opacity="1" fill-rule="nonzero"/></g></g><g fill="#2c306f" fill-opacity="1"><g transform="translate(59.690149, 42.271491)"><g><path d="M 4.941406 -2.5 C 4.78125 -1.648438 4.066406 -1.035156 3.214844 -1.035156 C 2.265625 -1.035156 1.511719 -1.832031 1.511719 -2.828125 C 1.511719 -3.832031 2.265625 -4.636719 3.214844 -4.636719 C 3.800781 -4.636719 4.378906 -4.339844 4.789062 -3.734375 L 5.710938 -4.386719 C 5.199219 -5.214844 4.265625 -5.761719 3.207031 -5.761719 C 1.597656 -5.761719 0.304688 -4.445312 0.304688 -2.828125 C 0.304688 -1.207031 1.597656 0.0976562 3.214844 0.0976562 C 4.722656 0.0976562 5.96875 -1.050781 6.132812 -2.5 Z M 4.941406 -2.5 "/></g></g></g><g fill="#2c306f" fill-opacity="1"><g transform="translate(67.041197, 42.271491)"><g><path d="M 3.238281 0.0976562 C 4.859375 0.0976562 6.164062 -1.214844 6.164062 -2.835938 C 6.164062 -4.453125 4.859375 -5.761719 3.230469 -5.761719 C 1.613281 -5.761719 0.304688 -4.453125 0.304688 -2.835938 C 0.304688 -1.214844 1.613281 0.0976562 3.238281 0.0976562 Z M 3.230469 -4.636719 C 4.1875 -4.636719 4.957031 -3.832031 4.957031 -2.835938 C 4.957031 -1.824219 4.195312 -1.035156 3.238281 -1.035156 C 2.265625 -1.035156 1.511719 -1.824219 1.511719 -2.835938 C 1.511719 -3.832031 2.265625 -4.636719 3.230469 -4.636719 Z M 3.230469 -4.636719 "/></g></g></g><g fill="#2c306f" fill-opacity="1"><g transform="translate(74.422645, 42.271491)"><g><path d="M 4.570312 -2.386719 L 0.539062 -5.769531 L 0.539062 0 L 1.71875 0 L 1.71875 -3.253906 L 5.746094 0.0976562 L 5.746094 -5.664062 L 4.570312 -5.664062 Z M 4.570312 -2.386719 "/></g></g></g><g fill="#2c306f" fill-opacity="1"><g transform="translate(81.621651, 42.271491)"><g><path d="M 3.027344 -2.339844 L 1.308594 -5.664062 L -0.046875 -5.664062 L 2.980469 0.0976562 L 5.859375 -5.664062 L 4.644531 -5.664062 Z M 3.027344 -2.339844 "/></g></g></g><g fill="#2c306f" fill-opacity="1"><g transform="translate(88.349342, 42.271491)"><g><path d="M 4.050781 0 L 4.050781 -1.0625 L 1.71875 -1.0625 L 1.71875 -2.484375 L 3.847656 -2.484375 L 3.847656 -3.542969 L 1.71875 -3.542969 L 1.71875 -4.597656 L 3.550781 -4.597656 L 3.550781 -5.664062 L 0.539062 -5.664062 L 0.539062 0 Z M 4.050781 0 "/></g></g></g><g fill="#2c306f" fill-opacity="1"><g transform="translate(93.617466, 42.271491)"><g><path d="M 2.3125 -0.980469 L 3.238281 0 L 4.804688 0 L 3.582031 -1.308594 C 4.371094 -1.671875 4.859375 -2.417969 4.859375 -3.4375 C 4.859375 -4.667969 3.839844 -5.664062 2.507812 -5.664062 L 0.539062 -5.664062 L 0.539062 0 L 1.71875 0 L 1.71875 -0.980469 Z M 1.71875 -2.042969 L 1.71875 -4.597656 L 2.433594 -4.597656 C 3.238281 -4.597656 3.648438 -4.035156 3.648438 -3.34375 C 3.648438 -2.5 3.140625 -2.042969 2.203125 -2.042969 Z M 1.71875 -2.042969 "/></g></g></g><g fill="#2c306f" fill-opacity="1"><g transform="translate(99.660979, 42.271491)"><g><path d="M 1.902344 -2.507812 C 2.449219 -2.449219 2.75 -2.167969 2.75 -1.710938 C 2.75 -1.34375 2.449219 -1.035156 2.058594 -1.035156 C 1.726562 -1.035156 1.460938 -1.117188 1.199219 -1.445312 L 0.226562 -0.730469 C 0.769531 -0.136719 1.414062 0.0976562 2.058594 0.0976562 C 3.054688 0.0976562 3.976562 -0.691406 3.976562 -1.792969 C 3.976562 -2.890625 3.175781 -3.542969 2.210938 -3.601562 C 1.613281 -3.640625 1.421875 -3.875 1.421875 -4.136719 C 1.421875 -4.445312 1.632812 -4.636719 1.945312 -4.636719 C 2.144531 -4.636719 2.394531 -4.515625 2.546875 -4.355469 L 3.472656 -5.03125 C 3.039062 -5.550781 2.507812 -5.761719 1.945312 -5.761719 C 1.164062 -5.761719 0.28125 -5.085938 0.28125 -4.128906 C 0.28125 -3.238281 0.917969 -2.621094 1.902344 -2.507812 Z M 1.902344 -2.507812 "/></g></g></g><g fill="#2c306f" fill-opacity="1"><g transform="translate(104.799865, 42.271491)"><g><path d="M 3.238281 0.0976562 C 4.859375 0.0976562 6.164062 -1.214844 6.164062 -2.835938 C 6.164062 -4.453125 4.859375 -5.761719 3.230469 -5.761719 C 1.613281 -5.761719 0.304688 -4.453125 0.304688 -2.835938 C 0.304688 -1.214844 1.613281 0.0976562 3.238281 0.0976562 Z M 3.230469 -4.636719 C 4.1875 -4.636719 4.957031 -3.832031 4.957031 -2.835938 C 4.957031 -1.824219 4.195312 -1.035156 3.238281 -1.035156 C 2.265625 -1.035156 1.511719 -1.824219 1.511719 -2.835938 C 1.511719 -3.832031 2.265625 -4.636719 3.230469 -4.636719 Z M 3.230469 -4.636719 "/></g></g></g><g fill="#2c306f" fill-opacity="1"><g transform="translate(112.181314, 42.271491)"><g><path d="M 2.3125 -0.980469 L 3.238281 0 L 4.804688 0 L 3.582031 -1.308594 C 4.371094 -1.671875 4.859375 -2.417969 4.859375 -3.4375 C 4.859375 -4.667969 3.839844 -5.664062 2.507812 -5.664062 L 0.539062 -5.664062 L 0.539062 0 L 1.71875 0 L 1.71875 -0.980469 Z M 1.71875 -2.042969 L 1.71875 -4.597656 L 2.433594 -4.597656 C 3.238281 -4.597656 3.648438 -4.035156 3.648438 -3.34375 C 3.648438 -2.5 3.140625 -2.042969 2.203125 -2.042969 Z M 1.71875 -2.042969 "/></g></g></g><g fill="#2c306f" fill-opacity="1"><g transform="translate(118.224827, 42.271491)"><g/></g></g><g fill="#2c306f" fill-opacity="1"><g transform="translate(122.337455, 42.271491)"><g><path d="M 0.539062 -5.664062 L 0.539062 0 L 2.84375 0 C 4.46875 0 5.800781 -1.207031 5.800781 -2.835938 C 5.800781 -4.445312 4.46875 -5.664062 2.835938 -5.664062 Z M 1.71875 -1.0625 L 1.71875 -4.597656 L 2.835938 -4.597656 C 3.824219 -4.597656 4.589844 -3.863281 4.589844 -2.835938 C 4.589844 -1.816406 3.824219 -1.0625 2.84375 -1.0625 Z M 1.71875 -1.0625 "/></g></g></g><g fill="#2c306f" fill-opacity="1"><g transform="translate(129.354013, 42.271491)"><g><path d="M 4.050781 0 L 4.050781 -1.0625 L 1.71875 -1.0625 L 1.71875 -2.484375 L 3.847656 -2.484375 L 3.847656 -3.542969 L 1.71875 -3.542969 L 1.71875 -4.597656 L 3.550781 -4.597656 L 3.550781 -5.664062 L 0.539062 -5.664062 L 0.539062 0 Z M 4.050781 0 "/></g></g></g><g fill="#2c306f" fill-opacity="1"><g transform="translate(134.622136, 42.271491)"><g/></g></g><g fill="#2c306f" fill-opacity="1"><g transform="translate(138.734764, 42.271491)"><g><path d="M 3.558594 -3.472656 L 0.539062 -5.761719 L 0.539062 0 L 1.71875 0 L 1.71875 -3.414062 L 3.558594 -2.082031 L 5.398438 -3.414062 L 5.398438 0 L 6.566406 0 L 6.566406 -5.761719 Z M 3.558594 -3.472656 "/></g></g></g><g fill="#2c306f" fill-opacity="1"><g transform="translate(146.762379, 42.271491)"><g><path d="M 4.050781 0 L 4.050781 -1.0625 L 1.71875 -1.0625 L 1.71875 -2.484375 L 3.847656 -2.484375 L 3.847656 -3.542969 L 1.71875 -3.542969 L 1.71875 -4.597656 L 3.550781 -4.597656 L 3.550781 -5.664062 L 0.539062 -5.664062 L 0.539062 0 Z M 4.050781 0 "/></g></g></g><g fill="#2c306f" fill-opacity="1"><g transform="translate(152.030503, 42.271491)"><g><path d="M 0.539062 -5.664062 L 0.539062 0 L 2.84375 0 C 4.46875 0 5.800781 -1.207031 5.800781 -2.835938 C 5.800781 -4.445312 4.46875 -5.664062 2.835938 -5.664062 Z M 1.71875 -1.0625 L 1.71875 -4.597656 L 2.835938 -4.597656 C 3.824219 -4.597656 4.589844 -3.863281 4.589844 -2.835938 C 4.589844 -1.816406 3.824219 -1.0625 2.84375 -1.0625 Z M 1.71875 -1.0625 "/></g></g></g><g fill="#2c306f" fill-opacity="1"><g transform="translate(159.047061, 42.271491)"><g><path d="M 1.71875 -5.664062 L 0.539062 -5.664062 L 0.539062 0 L 1.71875 0 Z M 1.71875 -5.664062 "/></g></g></g><g fill="#2c306f" fill-opacity="1"><g transform="translate(162.217054, 42.271491)"><g><path d="M 0.539062 -5.664062 L 0.539062 0 L 2.84375 0 C 4.46875 0 5.800781 -1.207031 5.800781 -2.835938 C 5.800781 -4.445312 4.46875 -5.664062 2.835938 -5.664062 Z M 1.71875 -1.0625 L 1.71875 -4.597656 L 2.835938 -4.597656 C 3.824219 -4.597656 4.589844 -3.863281 4.589844 -2.835938 C 4.589844 -1.816406 3.824219 -1.0625 2.84375 -1.0625 Z M 1.71875 -1.0625 "/></g></g></g><g fill="#2c306f" fill-opacity="1"><g transform="translate(169.233612, 42.271491)"><g><path d="M 4.652344 0 L 5.9375 0 L 2.941406 -5.761719 L -0.046875 0 L 1.171875 0 L 1.535156 -0.761719 L 4.28125 -0.761719 Z M 2.894531 -3.589844 L 3.761719 -1.824219 L 2.042969 -1.824219 Z M 2.894531 -3.589844 "/></g></g></g><g fill="#2c306f" fill-opacity="1"><g transform="translate(176.037318, 42.271491)"><g><path d="M 1.902344 -2.507812 C 2.449219 -2.449219 2.75 -2.167969 2.75 -1.710938 C 2.75 -1.34375 2.449219 -1.035156 2.058594 -1.035156 C 1.726562 -1.035156 1.460938 -1.117188 1.199219 -1.445312 L 0.226562 -0.730469 C 0.769531 -0.136719 1.414062 0.0976562 2.058594 0.0976562 C 3.054688 0.0976562 3.976562 -0.691406 3.976562 -1.792969 C 3.976562 -2.890625 3.175781 -3.542969 2.210938 -3.601562 C 1.613281 -3.640625 1.421875 -3.875 1.421875 -4.136719 C 1.421875 -4.445312 1.632812 -4.636719 1.945312 -4.636719 C 2.144531 -4.636719 2.394531 -4.515625 2.546875 -4.355469 L 3.472656 -5.03125 C 3.039062 -5.550781 2.507812 -5.761719 1.945312 -5.761719 C 1.164062 -5.761719 0.28125 -5.085938 0.28125 -4.128906 C 0.28125 -3.238281 0.917969 -2.621094 1.902344 -2.507812 Z M 1.902344 -2.507812 "/></g></g></g></svg>