<svg xmlns="http://www.w3.org/2000/svg" xmlns:xlink="http://www.w3.org/1999/xlink" width="1920" zoomAndPan="magnify" viewBox="0 0 1440 809.999993" height="1080" preserveAspectRatio="xMidYMid meet" version="1.0"><defs><clipPath id="3b509a07b8"><path d="M 367 349.957031 L 1073 349.957031 L 1073 460.207031 L 367 460.207031 Z M 367 349.957031 " clip-rule="nonzero"/></clipPath></defs><path fill="#ffd048" d="M 1062.964844 459.578125 L 377.046875 459.578125 C 372.039062 459.578125 367.96875 455.472656 367.96875 450.472656 L 367.96875 359.410156 C 367.96875 354.410156 372.039062 350.304688 377.046875 350.304688 L 1062.964844 350.304688 C 1067.972656 350.304688 1072.046875 354.410156 1072.046875 359.410156 L 1072.046875 450.472656 C 1072.046875 455.472656 1067.972656 459.578125 1062.964844 459.578125 " fill-opacity="1" fill-rule="evenodd"/><g clip-path="url(#3b509a07b8)"><path stroke-linecap="round" transform="matrix(-0.569726, -0.00000000000000007, -0.00000000000000007, 0.571244, 1077.78756, 347.672052)" fill="none" stroke-linejoin="round" d="M 26.01729 195.899055 L 1229.961723 195.899055 C 1238.751591 195.899055 1245.895929 188.712158 1245.895929 179.959324 L 1245.895929 20.548335 C 1245.895929 11.795501 1238.751591 4.608604 1229.961723 4.608604 L 26.01729 4.608604 C 17.227423 4.608604 10.076228 11.795501 10.076228 20.548335 L 10.076228 179.959324 C 10.076228 188.712158 17.227423 195.899055 26.01729 195.899055 Z M 26.01729 195.899055 " stroke="#000000" stroke-width="2.16" stroke-opacity="1" stroke-miterlimit="2.613"/></g><path fill="#2c306f" d="M 1053.617188 459.578125 L 1053.617188 417.894531 C 1053.617188 417.160156 1054.21875 416.554688 1054.933594 416.554688 C 1055.667969 416.554688 1056.265625 417.160156 1056.265625 417.894531 L 1056.265625 459.578125 Z M 1046.207031 459.578125 L 1043.558594 459.578125 L 1043.558594 433.605469 C 1043.558594 432.867188 1044.160156 432.289062 1044.894531 432.289062 C 1045.605469 432.289062 1046.207031 432.867188 1046.207031 433.605469 Z M 1036.527344 459.578125 L 1033.902344 459.578125 L 1033.902344 433.605469 C 1033.902344 432.867188 1034.480469 432.289062 1035.214844 432.289062 C 1035.949219 432.289062 1036.527344 432.867188 1036.527344 433.605469 Z M 1027.445312 459.578125 L 1024.796875 459.578125 L 1024.796875 433.605469 C 1024.796875 432.867188 1025.398438 432.289062 1026.113281 432.289062 C 1026.847656 432.289062 1027.445312 432.867188 1027.445312 433.605469 Z M 1017.765625 459.578125 L 1015.140625 459.578125 L 1015.140625 417.894531 C 1015.140625 417.160156 1015.71875 416.554688 1016.453125 416.554688 C 1017.1875 416.554688 1017.765625 417.160156 1017.765625 417.894531 Z M 1009.0625 459.578125 L 1006.417969 459.578125 L 1006.417969 433.605469 C 1006.417969 432.867188 1007.015625 432.289062 1007.75 432.289062 C 1008.464844 432.289062 1009.0625 432.867188 1009.0625 433.605469 Z M 999.382812 459.578125 L 996.757812 459.578125 L 996.757812 433.605469 C 996.757812 432.867188 997.335938 432.289062 998.070312 432.289062 C 998.804688 432.289062 999.382812 432.867188 999.382812 433.605469 Z M 990.304688 459.578125 L 987.65625 459.578125 L 987.65625 433.605469 C 987.65625 432.867188 988.257812 432.289062 988.992188 432.289062 C 989.703125 432.289062 990.304688 432.867188 990.304688 433.605469 Z M 980.621094 459.578125 L 977.996094 459.578125 L 977.996094 417.894531 C 977.996094 417.160156 978.574219 416.554688 979.308594 416.554688 C 980.042969 416.554688 980.621094 417.160156 980.621094 417.894531 Z M 971.921875 459.578125 L 969.292969 459.578125 L 969.292969 433.605469 C 969.292969 432.867188 969.875 432.289062 970.609375 432.289062 C 971.34375 432.289062 971.921875 432.867188 971.921875 433.605469 Z M 962.238281 459.578125 L 959.613281 459.578125 L 959.613281 433.605469 C 959.613281 432.867188 960.191406 432.289062 960.925781 432.289062 C 961.660156 432.289062 962.238281 432.867188 962.238281 433.605469 Z M 953.160156 459.578125 L 950.511719 459.578125 L 950.511719 433.605469 C 950.511719 432.867188 951.113281 432.289062 951.847656 432.289062 C 952.582031 432.289062 953.160156 432.867188 953.160156 433.605469 Z M 943.480469 459.578125 L 940.851562 459.578125 L 940.851562 417.894531 C 940.851562 417.160156 941.433594 416.554688 942.167969 416.554688 C 942.902344 416.554688 943.480469 417.160156 943.480469 417.894531 Z M 934.777344 459.578125 L 932.152344 459.578125 L 932.152344 433.605469 C 932.152344 432.867188 932.730469 432.289062 933.464844 432.289062 C 934.199219 432.289062 934.777344 432.867188 934.777344 433.605469 Z M 925.117188 459.578125 L 922.46875 459.578125 L 922.46875 433.605469 C 922.46875 432.867188 923.070312 432.289062 923.785156 432.289062 C 924.519531 432.289062 925.117188 432.867188 925.117188 433.605469 Z M 916.015625 459.578125 L 913.390625 459.578125 L 913.390625 433.605469 C 913.390625 432.867188 913.96875 432.289062 914.703125 432.289062 C 915.4375 432.289062 916.015625 432.867188 916.015625 433.605469 Z M 906.359375 459.578125 L 903.710938 459.578125 L 903.710938 417.894531 C 903.710938 417.160156 904.3125 416.554688 905.023438 416.554688 C 905.757812 416.554688 906.359375 417.160156 906.359375 417.894531 Z M 897.65625 459.578125 L 895.007812 459.578125 L 895.007812 433.605469 C 895.007812 432.867188 895.609375 432.289062 896.320312 432.289062 C 897.054688 432.289062 897.65625 432.867188 897.65625 433.605469 Z M 887.976562 459.578125 L 885.328125 459.578125 L 885.328125 433.605469 C 885.328125 432.867188 885.929688 432.289062 886.664062 432.289062 C 887.375 432.289062 887.976562 432.867188 887.976562 433.605469 Z M 878.875 459.578125 L 876.246094 459.578125 L 876.246094 433.605469 C 876.246094 432.867188 876.824219 432.289062 877.558594 432.289062 C 878.292969 432.289062 878.875 432.867188 878.875 433.605469 Z M 869.214844 459.578125 L 866.566406 459.578125 L 866.566406 417.894531 C 866.566406 417.160156 867.167969 416.554688 867.878906 416.554688 C 868.613281 416.554688 869.214844 417.160156 869.214844 417.894531 Z M 860.511719 459.578125 L 857.863281 459.578125 L 857.863281 433.605469 C 857.863281 432.867188 858.464844 432.289062 859.175781 432.289062 C 859.910156 432.289062 860.511719 432.867188 860.511719 433.605469 Z M 850.832031 459.578125 L 848.183594 459.578125 L 848.183594 433.605469 C 848.183594 432.867188 848.785156 432.289062 849.519531 432.289062 C 850.230469 432.289062 850.832031 432.867188 850.832031 433.605469 Z M 841.753906 459.578125 L 839.105469 459.578125 L 839.105469 433.605469 C 839.105469 432.867188 839.703125 432.289062 840.417969 432.289062 C 841.152344 432.289062 841.753906 432.867188 841.753906 433.605469 Z M 832.070312 459.578125 L 829.421875 459.578125 L 829.421875 417.894531 C 829.421875 417.160156 830.023438 416.554688 830.757812 416.554688 C 831.46875 416.554688 832.070312 417.160156 832.070312 417.894531 Z M 823.371094 459.578125 L 820.722656 459.578125 L 820.722656 433.605469 C 820.722656 432.867188 821.320312 432.289062 822.035156 432.289062 C 822.769531 432.289062 823.371094 432.867188 823.371094 433.605469 Z M 813.6875 459.578125 L 811.0625 459.578125 L 811.0625 433.605469 C 811.0625 432.867188 811.640625 432.289062 812.375 432.289062 C 813.109375 432.289062 813.6875 432.867188 813.6875 433.605469 Z M 804.609375 459.578125 L 801.960938 459.578125 L 801.960938 433.605469 C 801.960938 432.867188 802.5625 432.289062 803.273438 432.289062 C 804.007812 432.289062 804.609375 432.867188 804.609375 433.605469 Z M 794.925781 459.578125 L 792.300781 459.578125 L 792.300781 417.894531 C 792.300781 417.160156 792.878906 416.554688 793.613281 416.554688 C 794.347656 416.554688 794.925781 417.160156 794.925781 417.894531 Z M 786.226562 459.578125 L 783.578125 459.578125 L 783.578125 433.605469 C 783.578125 432.867188 784.179688 432.289062 784.914062 432.289062 C 785.625 432.289062 786.226562 432.867188 786.226562 433.605469 Z M 776.546875 459.578125 L 773.917969 459.578125 L 773.917969 433.605469 C 773.917969 432.867188 774.496094 432.289062 775.230469 432.289062 C 775.964844 432.289062 776.546875 432.867188 776.546875 433.605469 Z M 767.464844 459.578125 L 764.816406 459.578125 L 764.816406 433.605469 C 764.816406 432.867188 765.417969 432.289062 766.152344 432.289062 C 766.863281 432.289062 767.464844 432.867188 767.464844 433.605469 Z M 757.785156 459.578125 L 755.160156 459.578125 L 755.160156 417.894531 C 755.160156 417.160156 755.738281 416.554688 756.472656 416.554688 C 757.207031 416.554688 757.785156 417.160156 757.785156 417.894531 Z M 749.082031 459.578125 L 746.457031 459.578125 L 746.457031 433.605469 C 746.457031 432.867188 747.035156 432.289062 747.769531 432.289062 C 748.503906 432.289062 749.082031 432.867188 749.082031 433.605469 Z M 739.402344 459.578125 L 736.777344 459.578125 L 736.777344 433.605469 C 736.777344 432.867188 737.355469 432.289062 738.089844 432.289062 C 738.824219 432.289062 739.402344 432.867188 739.402344 433.605469 Z M 730.320312 459.578125 L 727.671875 459.578125 L 727.671875 433.605469 C 727.671875 432.867188 728.273438 432.289062 729.007812 432.289062 C 729.722656 432.289062 730.320312 432.867188 730.320312 433.605469 Z M 720.640625 459.578125 L 718.015625 459.578125 L 718.015625 417.894531 C 718.015625 417.160156 718.59375 416.554688 719.328125 416.554688 C 720.0625 416.554688 720.640625 417.160156 720.640625 417.894531 Z M 711.9375 459.578125 L 709.3125 459.578125 L 709.3125 433.605469 C 709.3125 432.867188 709.890625 432.289062 710.625 432.289062 C 711.359375 432.289062 711.9375 432.867188 711.9375 433.605469 Z M 702.28125 459.578125 L 699.632812 459.578125 L 699.632812 433.605469 C 699.632812 432.867188 700.234375 432.289062 700.945312 432.289062 C 701.679688 432.289062 702.28125 432.867188 702.28125 433.605469 Z M 693.179688 459.578125 L 690.550781 459.578125 L 690.550781 433.605469 C 690.550781 432.867188 691.132812 432.289062 691.867188 432.289062 C 692.601562 432.289062 693.179688 432.867188 693.179688 433.605469 Z M 683.519531 459.578125 L 680.871094 459.578125 L 680.871094 417.894531 C 680.871094 417.160156 681.472656 416.554688 682.183594 416.554688 C 682.917969 416.554688 683.519531 417.160156 683.519531 417.894531 Z M 674.816406 459.578125 L 672.167969 459.578125 L 672.167969 433.605469 C 672.167969 432.867188 672.75 432.289062 673.484375 432.289062 C 674.21875 432.289062 674.816406 432.867188 674.816406 433.605469 Z M 665.136719 459.578125 L 662.488281 459.578125 L 662.488281 433.605469 C 662.488281 432.867188 663.089844 432.289062 663.824219 432.289062 C 664.535156 432.289062 665.136719 432.867188 665.136719 433.605469 Z M 656.035156 459.578125 L 653.410156 459.578125 L 653.410156 433.605469 C 653.410156 432.867188 653.988281 432.289062 654.722656 432.289062 C 655.457031 432.289062 656.035156 432.867188 656.035156 433.605469 Z M 646.375 459.578125 L 643.726562 459.578125 L 643.726562 417.894531 C 643.726562 417.160156 644.328125 416.554688 645.039062 416.554688 C 645.773438 416.554688 646.375 417.160156 646.375 417.894531 Z M 637.675781 459.578125 L 635.027344 459.578125 L 635.027344 433.605469 C 635.027344 432.867188 635.628906 432.289062 636.339844 432.289062 C 637.074219 432.289062 637.675781 432.867188 637.675781 433.605469 Z M 627.992188 459.578125 L 625.34375 459.578125 L 625.34375 433.605469 C 625.34375 432.867188 625.945312 432.289062 626.679688 432.289062 C 627.414062 432.289062 627.992188 432.867188 627.992188 433.605469 Z M 618.914062 459.578125 L 616.265625 459.578125 L 616.265625 433.605469 C 616.265625 432.867188 616.84375 432.289062 617.578125 432.289062 C 618.3125 432.289062 618.914062 432.867188 618.914062 433.605469 Z M 609.234375 459.578125 L 606.585938 459.578125 L 606.585938 417.894531 C 606.585938 417.160156 607.183594 416.554688 607.917969 416.554688 C 608.632812 416.554688 609.234375 417.160156 609.234375 417.894531 Z M 600.53125 459.578125 L 597.882812 459.578125 L 597.882812 433.605469 C 597.882812 432.867188 598.484375 432.289062 599.195312 432.289062 C 599.929688 432.289062 600.53125 432.867188 600.53125 433.605469 Z M 590.851562 459.578125 L 588.222656 459.578125 L 588.222656 433.605469 C 588.222656 432.867188 588.804688 432.289062 589.539062 432.289062 C 590.273438 432.289062 590.851562 432.867188 590.851562 433.605469 Z M 581.769531 459.578125 L 579.121094 459.578125 L 579.121094 433.605469 C 579.121094 432.867188 579.722656 432.289062 580.433594 432.289062 C 581.167969 432.289062 581.769531 432.867188 581.769531 433.605469 Z M 572.089844 459.578125 L 569.464844 459.578125 L 569.464844 417.894531 C 569.464844 417.160156 570.042969 416.554688 570.777344 416.554688 C 571.511719 416.554688 572.089844 417.160156 572.089844 417.894531 Z M 563.386719 459.578125 L 560.738281 459.578125 L 560.738281 433.605469 C 560.738281 432.867188 561.339844 432.289062 562.074219 432.289062 C 562.785156 432.289062 563.386719 432.867188 563.386719 433.605469 Z M 553.707031 459.578125 L 551.082031 459.578125 L 551.082031 433.605469 C 551.082031 432.867188 551.660156 432.289062 552.394531 432.289062 C 553.128906 432.289062 553.707031 432.867188 553.707031 433.605469 Z M 544.625 459.578125 L 541.976562 459.578125 L 541.976562 433.605469 C 541.976562 432.867188 542.578125 432.289062 543.3125 432.289062 C 544.027344 432.289062 544.625 432.867188 544.625 433.605469 Z M 534.945312 459.578125 L 532.320312 459.578125 L 532.320312 417.894531 C 532.320312 417.160156 532.898438 416.554688 533.632812 416.554688 C 534.367188 416.554688 534.945312 417.160156 534.945312 417.894531 Z M 526.246094 459.578125 L 523.597656 459.578125 L 523.597656 433.605469 C 523.597656 432.867188 524.195312 432.289062 524.929688 432.289062 C 525.664062 432.289062 526.246094 432.867188 526.246094 433.605469 Z M 516.5625 459.578125 L 513.9375 459.578125 L 513.9375 433.605469 C 513.9375 432.867188 514.539062 432.289062 515.25 432.289062 C 515.984375 432.289062 516.5625 432.867188 516.5625 433.605469 Z M 507.484375 459.578125 L 504.835938 459.578125 L 504.835938 433.605469 C 504.835938 432.867188 505.4375 432.289062 506.171875 432.289062 C 506.90625 432.289062 507.484375 432.867188 507.484375 433.605469 Z M 497.800781 459.578125 L 495.175781 459.578125 L 495.175781 417.894531 C 495.175781 417.160156 495.753906 416.554688 496.488281 416.554688 C 497.222656 416.554688 497.800781 417.160156 497.800781 417.894531 Z M 489.101562 459.578125 L 486.476562 459.578125 L 486.476562 433.605469 C 486.476562 432.867188 487.054688 432.289062 487.789062 432.289062 C 488.523438 432.289062 489.101562 432.867188 489.101562 433.605469 Z M 479.441406 459.578125 L 476.792969 459.578125 L 476.792969 433.605469 C 476.792969 432.867188 477.394531 432.289062 478.105469 432.289062 C 478.839844 432.289062 479.441406 432.867188 479.441406 433.605469 Z M 470.339844 459.578125 L 467.691406 459.578125 L 467.691406 433.605469 C 467.691406 432.867188 468.292969 432.289062 469.027344 432.289062 C 469.761719 432.289062 470.339844 432.867188 470.339844 433.605469 Z M 460.679688 459.578125 L 458.03125 459.578125 L 458.03125 417.894531 C 458.03125 417.160156 458.632812 416.554688 459.347656 416.554688 C 460.082031 416.554688 460.679688 417.160156 460.679688 417.894531 Z M 451.957031 459.578125 L 449.332031 459.578125 L 449.332031 433.605469 C 449.332031 432.867188 449.933594 432.289062 450.644531 432.289062 C 451.378906 432.289062 451.957031 432.867188 451.957031 433.605469 Z M 442.296875 459.578125 L 439.652344 459.578125 L 439.652344 433.605469 C 439.652344 432.867188 440.25 432.289062 440.984375 432.289062 C 441.699219 432.289062 442.296875 432.867188 442.296875 433.605469 Z M 433.195312 459.578125 L 430.570312 459.578125 L 430.570312 433.605469 C 430.570312 432.867188 431.148438 432.289062 431.882812 432.289062 C 432.617188 432.289062 433.195312 432.867188 433.195312 433.605469 Z M 423.539062 459.578125 L 420.890625 459.578125 L 420.890625 417.894531 C 420.890625 417.160156 421.492188 416.554688 422.226562 416.554688 C 422.9375 416.554688 423.539062 417.160156 423.539062 417.894531 Z M 414.835938 459.578125 L 412.1875 459.578125 L 412.1875 433.605469 C 412.1875 432.867188 412.789062 432.289062 413.5 432.289062 C 414.234375 432.289062 414.835938 432.867188 414.835938 433.605469 Z M 405.15625 459.578125 L 402.507812 459.578125 L 402.507812 433.605469 C 402.507812 432.867188 403.109375 432.289062 403.84375 432.289062 C 404.578125 432.289062 405.15625 432.867188 405.15625 433.605469 Z M 396.074219 459.578125 L 393.425781 459.578125 L 393.425781 433.605469 C 393.425781 432.867188 394.003906 432.289062 394.738281 432.289062 C 395.472656 432.289062 396.074219 432.867188 396.074219 433.605469 Z M 386.394531 459.578125 L 383.746094 459.578125 L 383.746094 417.894531 C 383.746094 417.160156 384.347656 416.554688 385.082031 416.554688 C 385.792969 416.554688 386.394531 417.160156 386.394531 417.894531 L 386.394531 459.578125 " fill-opacity="1" fill-rule="nonzero"/></svg>